<svg width="720" height="720" viewBox="0 0 720 720" fill="none" xmlns="http://www.w3.org/2000/svg">
<g clip-path="url(#clip0_235_2)">
<path d="M96.7958 39.783C94.7561 39.783 93.0303 41.5063 93.0303 43.543C93.0303 45.5797 94.7561 47.303 96.7958 47.303C98.8354 47.303 100.561 45.5797 100.561 43.543C100.561 41.5063 98.8354 39.783 96.7958 39.783Z" fill="#9D9D9D"/>
<path d="M79.3817 39.783C77.3421 39.783 75.6162 41.5063 75.6162 43.543C75.6162 45.5797 77.3421 47.303 79.3817 47.303C81.4214 47.303 83.1472 45.5797 83.1472 43.543C83.3041 41.5063 81.5783 39.783 79.3817 39.783Z" fill="#9D9D9D"/>
<path d="M62.1229 39.783C60.0833 39.783 58.3574 41.5063 58.3574 43.543C58.3574 45.5797 60.0833 47.303 62.1229 47.303C64.1626 47.303 65.8885 45.5797 65.8885 43.543C65.8885 41.5063 64.1626 39.783 62.1229 39.783Z" fill="#9D9D9D"/>
<path d="M96.7958 57.7997C94.7561 57.7997 93.0303 59.523 93.0303 61.5597C93.0303 63.5964 94.7561 65.3197 96.7958 65.3197C98.8354 65.3197 100.561 63.5964 100.561 61.5597C100.561 59.523 98.8354 57.7997 96.7958 57.7997Z" fill="#9D9D9D"/>
<path d="M79.3817 57.7997C77.3421 57.7997 75.6162 59.523 75.6162 61.5597C75.6162 63.5964 77.3421 65.3197 79.3817 65.3197C81.4214 65.3197 83.1472 63.5964 83.1472 61.5597C83.1472 59.523 81.5783 57.7997 79.3817 57.7997Z" fill="#9D9D9D"/>
<path d="M62.1229 57.7997C60.0833 57.7997 58.3574 59.523 58.3574 61.5597C58.3574 63.5964 60.0833 65.3197 62.1229 65.3197C64.1626 65.3197 65.8885 63.5964 65.8885 61.5597C65.8885 59.523 64.1626 57.7997 62.1229 57.7997Z" fill="#9D9D9D"/>
<path d="M100.561 79.5764C100.561 77.4998 98.8755 75.8164 96.7958 75.8164C94.7161 75.8164 93.0303 77.4998 93.0303 79.5764C93.0303 81.653 94.7161 83.3364 96.7958 83.3364C98.8755 83.3364 100.561 81.653 100.561 79.5764Z" fill="#9D9D9D"/>
<path d="M83.1472 79.5764C83.1472 77.4998 81.4614 75.8164 79.3817 75.8164C77.3021 75.8164 75.6162 77.4998 75.6162 79.5764C75.6162 81.653 77.3021 83.3364 79.3817 83.3364C81.4614 83.3364 83.1472 81.653 83.1472 79.5764Z" fill="#9D9D9D"/>
<path d="M65.8885 79.5764C65.8885 77.4998 64.2026 75.8164 62.1229 75.8164C60.0433 75.8164 58.3574 77.4998 58.3574 79.5764C58.3574 81.653 60.0433 83.3364 62.1229 83.3364C64.2026 83.3364 65.8885 81.653 65.8885 79.5764Z" fill="#9D9D9D"/>
<path d="M96.7958 93.677C94.7561 93.677 93.0303 95.4003 93.0303 97.437C93.0303 99.4737 94.7561 101.197 96.7958 101.197C98.8354 101.197 100.561 99.4737 100.561 97.437C100.561 95.4003 98.8354 93.677 96.7958 93.677Z" fill="#9D9D9D"/>
<path d="M79.3817 93.677C77.3421 93.677 75.6162 95.4003 75.6162 97.437C75.6162 99.4737 77.3421 101.197 79.3817 101.197C81.4214 101.197 83.1472 99.4737 83.1472 97.437C83.1472 95.4003 81.5783 93.677 79.3817 93.677Z" fill="#9D9D9D"/>
<path d="M62.1229 93.677C60.0833 93.677 58.3574 95.4003 58.3574 97.437C58.3574 99.4737 60.0833 101.197 62.1229 101.197C64.1626 101.197 65.8885 99.4737 65.8885 97.437C65.8885 95.4003 64.1626 93.677 62.1229 93.677Z" fill="#9D9D9D"/>
<path d="M96.7958 111.694C94.7561 111.694 93.0303 113.417 93.0303 115.454C93.0303 117.49 94.7561 119.214 96.7958 119.214C98.8354 119.214 100.561 117.49 100.561 115.454C100.561 113.417 98.8354 111.694 96.7958 111.694Z" fill="#9D9D9D"/>
<path d="M79.3817 111.694C77.3421 111.694 75.6162 113.417 75.6162 115.454C75.6162 117.49 77.3421 119.214 79.3817 119.214C81.4214 119.214 83.1472 117.49 83.1472 115.454C83.3041 113.417 81.5783 111.694 79.3817 111.694Z" fill="#9D9D9D"/>
<path d="M62.1229 111.694C60.0833 111.694 58.3574 113.417 58.3574 115.454C58.3574 117.49 60.0833 119.214 62.1229 119.214C64.1626 119.214 65.8885 117.49 65.8885 115.454C65.8885 113.417 64.1626 111.694 62.1229 111.694Z" fill="#9D9D9D"/>
<path d="M218.234 47.4606C220.274 47.4606 222 45.7372 222 43.7005C222 41.6639 220.274 39.9406 218.234 39.9406C216.195 39.9406 214.469 41.6639 214.469 43.7005C214.469 45.7372 216.038 47.4606 218.234 47.4606Z" fill="#9D9D9D"/>
<path d="M200.82 39.783C198.781 39.783 197.055 41.5063 197.055 43.543C197.055 45.5797 198.781 47.303 200.82 47.303C202.86 47.303 204.586 45.5797 204.586 43.543C204.586 41.5063 203.017 39.783 200.82 39.783Z" fill="#9D9D9D"/>
<path d="M183.561 39.783C181.522 39.783 179.796 41.5063 179.796 43.543C179.796 45.5797 181.522 47.303 183.561 47.303C185.601 47.303 187.327 45.5797 187.327 43.543C187.327 41.5063 185.601 39.783 183.561 39.783Z" fill="#9D9D9D"/>
<path d="M166.144 39.783C164.105 39.783 162.379 41.5063 162.379 43.543C162.379 45.5797 164.105 47.303 166.144 47.303C168.184 47.303 169.91 45.5797 169.91 43.543C169.91 41.5063 168.341 39.783 166.144 39.783Z" fill="#9D9D9D"/>
<path d="M148.887 39.783C146.847 39.783 145.121 41.5063 145.121 43.543C145.121 45.5797 146.847 47.303 148.887 47.303C150.926 47.303 152.652 45.5797 152.652 43.543C152.652 41.5063 150.926 39.783 148.887 39.783Z" fill="#9D9D9D"/>
<path d="M131.472 39.783C129.432 39.783 127.706 41.5063 127.706 43.543C127.706 45.5797 129.432 47.303 131.472 47.303C133.511 47.303 135.237 45.5797 135.237 43.543C135.237 41.5063 133.511 39.783 131.472 39.783Z" fill="#9D9D9D"/>
<path d="M114.055 39.783C112.015 39.783 110.289 41.5063 110.289 43.543C110.289 45.5797 112.015 47.303 114.055 47.303C116.094 47.303 117.82 45.5797 117.82 43.543C117.977 41.5063 116.251 39.783 114.055 39.783Z" fill="#9D9D9D"/>
<path d="M218.234 57.7997C216.195 57.7997 214.469 59.523 214.469 61.5597C214.469 63.5964 216.195 65.3197 218.234 65.3197C220.274 65.3197 222 63.5964 222 61.5597C222 59.523 220.274 57.7997 218.234 57.7997Z" fill="#9D9D9D"/>
<path d="M200.82 57.7997C198.781 57.7997 197.055 59.523 197.055 61.5597C197.055 63.5964 198.781 65.3197 200.82 65.3197C202.86 65.3197 204.586 63.5964 204.586 61.5597C204.586 59.523 203.017 57.7997 200.82 57.7997Z" fill="#9D9D9D"/>
<path d="M183.561 57.7997C181.522 57.7997 179.796 59.523 179.796 61.5597C179.796 63.5964 181.522 65.3197 183.561 65.3197C185.601 65.3197 187.327 63.5964 187.327 61.5597C187.327 59.523 185.601 57.7997 183.561 57.7997Z" fill="#9D9D9D"/>
<path d="M166.144 57.7997C164.105 57.7997 162.379 59.523 162.379 61.5597C162.379 63.5964 164.105 65.3197 166.144 65.3197C168.184 65.3197 169.91 63.5964 169.91 61.5597C169.91 59.523 168.341 57.7997 166.144 57.7997Z" fill="#9D9D9D"/>
<path d="M148.887 57.7997C146.847 57.7997 145.121 59.523 145.121 61.5597C145.121 63.5964 146.847 65.3197 148.887 65.3197C150.926 65.3197 152.652 63.5964 152.652 61.5597C152.652 59.523 150.926 57.7997 148.887 57.7997Z" fill="#9D9D9D"/>
<path d="M131.472 57.7997C129.432 57.7997 127.706 59.523 127.706 61.5597C127.706 63.5964 129.432 65.3197 131.472 65.3197C133.511 65.3197 135.237 63.5964 135.237 61.5597C135.237 59.523 133.511 57.7997 131.472 57.7997Z" fill="#9D9D9D"/>
<path d="M114.055 57.7997C112.015 57.7997 110.289 59.523 110.289 61.5597C110.289 63.5964 112.015 65.3197 114.055 65.3197C116.094 65.3197 117.82 63.5964 117.82 61.5597C117.82 59.523 116.251 57.7997 114.055 57.7997Z" fill="#9D9D9D"/>
<path d="M218.234 75.8164C216.195 75.8164 214.469 77.5397 214.469 79.5764C214.469 81.6131 216.195 83.3364 218.234 83.3364C220.274 83.3364 222 81.6131 222 79.5764C222 77.5397 220.274 75.8164 218.234 75.8164Z" fill="#9D9D9D"/>
<path d="M200.82 75.8164C198.781 75.8164 197.055 77.5397 197.055 79.5764C197.055 81.6131 198.781 83.3364 200.82 83.3364C202.86 83.3364 204.586 81.6131 204.586 79.5764C204.586 77.5397 203.017 75.8164 200.82 75.8164Z" fill="#9D9D9D"/>
<path d="M183.561 75.8164C181.522 75.8164 179.796 77.5397 179.796 79.5764C179.796 81.6131 181.522 83.3364 183.561 83.3364C185.601 83.3364 187.327 81.6131 187.327 79.5764C187.327 77.5397 185.601 75.8164 183.561 75.8164Z" fill="#9D9D9D"/>
<path d="M166.144 75.8164C164.105 75.8164 162.379 77.5397 162.379 79.5764C162.379 81.6131 164.105 83.3364 166.144 83.3364C168.184 83.3364 169.91 81.6131 169.91 79.5764C169.91 77.5397 168.341 75.8164 166.144 75.8164Z" fill="#9D9D9D"/>
<path d="M152.652 79.5764C152.652 77.4998 150.966 75.8164 148.887 75.8164C146.807 75.8164 145.121 77.4998 145.121 79.5764C145.121 81.653 146.807 83.3364 148.887 83.3364C150.966 83.3364 152.652 81.653 152.652 79.5764Z" fill="#9D9D9D"/>
<path d="M131.472 75.8164C129.432 75.8164 127.706 77.5397 127.706 79.5764C127.706 81.6131 129.432 83.3364 131.472 83.3364C133.511 83.3364 135.237 81.6131 135.237 79.5764C135.237 77.5397 133.511 75.8164 131.472 75.8164Z" fill="#9D9D9D"/>
<path d="M114.055 75.8164C112.015 75.8164 110.289 77.5397 110.289 79.5764C110.289 81.6131 112.015 83.3364 114.055 83.3364C116.094 83.3364 117.82 81.6131 117.82 79.5764C117.977 77.5397 116.251 75.8164 114.055 75.8164Z" fill="#9D9D9D"/>
<path d="M218.234 93.677C216.195 93.677 214.469 95.4003 214.469 97.437C214.469 99.4737 216.195 101.197 218.234 101.197C220.274 101.197 222 99.4737 222 97.437C222 95.4003 220.274 93.677 218.234 93.677Z" fill="#9D9D9D"/>
<path d="M200.82 93.677C198.781 93.677 197.055 95.4003 197.055 97.437C197.055 99.4737 198.781 101.197 200.82 101.197C202.86 101.197 204.586 99.4737 204.586 97.437C204.586 95.4003 203.017 93.677 200.82 93.677Z" fill="#9D9D9D"/>
<path d="M183.561 93.677C181.522 93.677 179.796 95.4003 179.796 97.437C179.796 99.4737 181.522 101.197 183.561 101.197C185.601 101.197 187.327 99.4737 187.327 97.437C187.327 95.4003 185.601 93.677 183.561 93.677Z" fill="#9D9D9D"/>
<path d="M166.144 93.677C164.105 93.677 162.379 95.4003 162.379 97.437C162.379 99.4737 164.105 101.197 166.144 101.197C168.184 101.197 169.91 99.4737 169.91 97.437C169.91 95.4003 168.341 93.677 166.144 93.677Z" fill="#9D9D9D"/>
<path d="M148.887 93.677C146.847 93.677 145.121 95.4003 145.121 97.437C145.121 99.4737 146.847 101.197 148.887 101.197C150.926 101.197 152.652 99.4737 152.652 97.437C152.652 95.4003 150.926 93.677 148.887 93.677Z" fill="#9D9D9D"/>
<path d="M131.472 93.677C129.432 93.677 127.706 95.4003 127.706 97.437C127.706 99.4737 129.432 101.197 131.472 101.197C133.511 101.197 135.237 99.4737 135.237 97.437C135.237 95.4003 133.511 93.677 131.472 93.677Z" fill="#9D9D9D"/>
<path d="M114.055 93.677C112.015 93.677 110.289 95.4003 110.289 97.437C110.289 99.4737 112.015 101.197 114.055 101.197C116.094 101.197 117.82 99.4737 117.82 97.437C117.82 95.4003 116.251 93.677 114.055 93.677Z" fill="#9D9D9D"/>
<path d="M218.234 111.694C216.195 111.694 214.469 113.417 214.469 115.454C214.469 117.49 216.195 119.214 218.234 119.214C220.274 119.214 222 117.49 222 115.454C222 113.417 220.274 111.694 218.234 111.694Z" fill="#9D9D9D"/>
<path d="M200.82 111.694C198.781 111.694 197.055 113.417 197.055 115.454C197.055 117.49 198.781 119.214 200.82 119.214C202.86 119.214 204.586 117.49 204.586 115.454C204.586 113.417 203.017 111.694 200.82 111.694Z" fill="#9D9D9D"/>
<path d="M183.561 111.694C181.522 111.694 179.796 113.417 179.796 115.454C179.796 117.49 181.522 119.214 183.561 119.214C185.601 119.214 187.327 117.49 187.327 115.454C187.327 113.417 185.601 111.694 183.561 111.694Z" fill="#9D9D9D"/>
<path d="M166.144 111.694C164.105 111.694 162.379 113.417 162.379 115.454C162.379 117.49 164.105 119.214 166.144 119.214C168.184 119.214 169.91 117.49 169.91 115.454C169.91 113.417 168.341 111.694 166.144 111.694Z" fill="#9D9D9D"/>
<path d="M148.887 111.694C146.847 111.694 145.121 113.417 145.121 115.454C145.121 117.49 146.847 119.214 148.887 119.214C150.926 119.214 152.652 117.49 152.652 115.454C152.652 113.417 150.926 111.694 148.887 111.694Z" fill="#9D9D9D"/>
<path d="M131.472 111.694C129.432 111.694 127.706 113.417 127.706 115.454C127.706 117.49 129.432 119.214 131.472 119.214C133.511 119.214 135.237 117.49 135.237 115.454C135.237 113.417 133.511 111.694 131.472 111.694Z" fill="#9D9D9D"/>
<path d="M114.055 111.694C112.015 111.694 110.289 113.417 110.289 115.454C110.289 117.49 112.015 119.214 114.055 119.214C116.094 119.214 117.82 117.49 117.82 115.454C117.977 113.417 116.251 111.694 114.055 111.694Z" fill="#9D9D9D"/>
<path d="M78.4393 52.9436C76.3997 52.9436 74.6738 54.6669 74.6738 56.7036C74.6738 58.7403 76.3997 60.4636 78.4393 60.4636C80.479 60.4636 82.2049 58.7403 82.2049 56.7036C82.2049 54.6669 80.479 52.9436 78.4393 52.9436Z" fill="#FC8B0B"/>
<path d="M78.4393 52.9436C76.3997 52.9436 74.6738 54.6669 74.6738 56.7036C74.6738 58.7403 76.3997 60.4636 78.4393 60.4636C80.479 60.4636 82.2049 58.7403 82.2049 56.7036C82.2049 54.6669 80.479 52.9436 78.4393 52.9436Z" fill="black" fill-opacity="0.2"/>
<path d="M61.0243 52.9436C58.9847 52.9436 57.2588 54.6669 57.2588 56.7036C57.2588 58.7403 58.9847 60.4636 61.0243 60.4636C63.064 60.4636 64.7898 58.7403 64.7898 56.7036C64.7898 54.6669 63.2209 52.9436 61.0243 52.9436Z" fill="#FC8B0B"/>
<path d="M61.0243 52.9436C58.9847 52.9436 57.2588 54.6669 57.2588 56.7036C57.2588 58.7403 58.9847 60.4636 61.0243 60.4636C63.064 60.4636 64.7898 58.7403 64.7898 56.7036C64.7898 54.6669 63.2209 52.9436 61.0243 52.9436Z" fill="black" fill-opacity="0.2"/>
<path d="M43.7655 52.9436C41.7258 52.9436 40 54.6669 40 56.7036C40 58.7403 41.7258 60.4636 43.7655 60.4636C45.8052 60.4636 47.531 58.7403 47.531 56.7036C47.531 54.6669 45.8052 52.9436 43.7655 52.9436Z" fill="#FC8B0B"/>
<path d="M43.7655 52.9436C41.7258 52.9436 40 54.6669 40 56.7036C40 58.7403 41.7258 60.4636 43.7655 60.4636C45.8052 60.4636 47.531 58.7403 47.531 56.7036C47.531 54.6669 45.8052 52.9436 43.7655 52.9436Z" fill="black" fill-opacity="0.2"/>
<path d="M78.4393 70.9603C76.3997 70.9603 74.6738 72.6837 74.6738 74.7203C74.6738 76.757 76.3997 78.4803 78.4393 78.4803C80.479 78.4803 82.2049 76.757 82.2049 74.7203C82.2049 72.6837 80.479 70.9603 78.4393 70.9603Z" fill="#FC8B0B"/>
<path d="M78.4393 70.9603C76.3997 70.9603 74.6738 72.6837 74.6738 74.7203C74.6738 76.757 76.3997 78.4803 78.4393 78.4803C80.479 78.4803 82.2049 76.757 82.2049 74.7203C82.2049 72.6837 80.479 70.9603 78.4393 70.9603Z" fill="black" fill-opacity="0.2"/>
<path d="M61.0243 70.9603C58.9847 70.9603 57.2588 72.6837 57.2588 74.7203C57.2588 76.757 58.9847 78.4803 61.0243 78.4803C63.064 78.4803 64.7898 76.757 64.7898 74.7203C64.7898 72.6837 63.2209 70.9603 61.0243 70.9603Z" fill="#FC8B0B"/>
<path d="M61.0243 70.9603C58.9847 70.9603 57.2588 72.6837 57.2588 74.7203C57.2588 76.757 58.9847 78.4803 61.0243 78.4803C63.064 78.4803 64.7898 76.757 64.7898 74.7203C64.7898 72.6837 63.2209 70.9603 61.0243 70.9603Z" fill="black" fill-opacity="0.2"/>
<path d="M43.7655 70.9603C41.7258 70.9603 40 72.6837 40 74.7203C40 76.757 41.7258 78.4803 43.7655 78.4803C45.8052 78.4803 47.531 76.757 47.531 74.7203C47.531 72.6837 45.8052 70.9603 43.7655 70.9603Z" fill="#FC8B0B"/>
<path d="M43.7655 70.9603C41.7258 70.9603 40 72.6837 40 74.7203C40 76.757 41.7258 78.4803 43.7655 78.4803C45.8052 78.4803 47.531 76.757 47.531 74.7203C47.531 72.6837 45.8052 70.9603 43.7655 70.9603Z" fill="black" fill-opacity="0.2"/>
<path d="M78.4393 88.8202C76.3997 88.8202 74.6738 90.5435 74.6738 92.5802C74.6738 94.6169 76.3997 96.3402 78.4393 96.3402C80.479 96.3402 82.2049 94.6169 82.2049 92.5802C82.2049 90.5435 80.479 88.8202 78.4393 88.8202Z" fill="#FC8B0B"/>
<path d="M78.4393 88.8202C76.3997 88.8202 74.6738 90.5435 74.6738 92.5802C74.6738 94.6169 76.3997 96.3402 78.4393 96.3402C80.479 96.3402 82.2049 94.6169 82.2049 92.5802C82.2049 90.5435 80.479 88.8202 78.4393 88.8202Z" fill="black" fill-opacity="0.2"/>
<path d="M61.0243 88.8202C58.9847 88.8202 57.2588 90.5435 57.2588 92.5802C57.2588 94.6169 58.9847 96.3402 61.0243 96.3402C63.064 96.3402 64.7898 94.6169 64.7898 92.5802C64.7898 90.5435 63.2209 88.8202 61.0243 88.8202Z" fill="#FC8B0B"/>
<path d="M61.0243 88.8202C58.9847 88.8202 57.2588 90.5435 57.2588 92.5802C57.2588 94.6169 58.9847 96.3402 61.0243 96.3402C63.064 96.3402 64.7898 94.6169 64.7898 92.5802C64.7898 90.5435 63.2209 88.8202 61.0243 88.8202Z" fill="black" fill-opacity="0.2"/>
<path d="M43.7655 88.8202C41.7258 88.8202 40 90.5435 40 92.5802C40 94.6169 41.7258 96.3402 43.7655 96.3402C45.8052 96.3402 47.531 94.6169 47.531 92.5802C47.531 90.5435 45.8052 88.8202 43.7655 88.8202Z" fill="#FC8B0B"/>
<path d="M43.7655 88.8202C41.7258 88.8202 40 90.5435 40 92.5802C40 94.6169 41.7258 96.3402 43.7655 96.3402C45.8052 96.3402 47.531 94.6169 47.531 92.5802C47.531 90.5435 45.8052 88.8202 43.7655 88.8202Z" fill="black" fill-opacity="0.2"/>
<path d="M78.4393 106.837C76.3997 106.837 74.6738 108.56 74.6738 110.597C74.6738 112.633 76.3997 114.357 78.4393 114.357C80.479 114.357 82.2049 112.633 82.2049 110.597C82.2049 108.56 80.479 106.837 78.4393 106.837Z" fill="#FC8B0B"/>
<path d="M78.4393 106.837C76.3997 106.837 74.6738 108.56 74.6738 110.597C74.6738 112.633 76.3997 114.357 78.4393 114.357C80.479 114.357 82.2049 112.633 82.2049 110.597C82.2049 108.56 80.479 106.837 78.4393 106.837Z" fill="black" fill-opacity="0.2"/>
<path d="M61.0243 106.837C58.9847 106.837 57.2588 108.56 57.2588 110.597C57.2588 112.633 58.9847 114.357 61.0243 114.357C63.064 114.357 64.7898 112.633 64.7898 110.597C64.7898 108.56 63.2209 106.837 61.0243 106.837Z" fill="#FC8B0B"/>
<path d="M61.0243 106.837C58.9847 106.837 57.2588 108.56 57.2588 110.597C57.2588 112.633 58.9847 114.357 61.0243 114.357C63.064 114.357 64.7898 112.633 64.7898 110.597C64.7898 108.56 63.2209 106.837 61.0243 106.837Z" fill="black" fill-opacity="0.2"/>
<path d="M43.7655 106.837C41.7258 106.837 40 108.56 40 110.597C40 112.633 41.7258 114.357 43.7655 114.357C45.8052 114.357 47.531 112.633 47.531 110.597C47.531 108.56 45.8052 106.837 43.7655 106.837Z" fill="#FC8B0B"/>
<path d="M43.7655 106.837C41.7258 106.837 40 108.56 40 110.597C40 112.633 41.7258 114.357 43.7655 114.357C45.8052 114.357 47.531 112.633 47.531 110.597C47.531 108.56 45.8052 106.837 43.7655 106.837Z" fill="black" fill-opacity="0.2"/>
<path d="M78.4393 124.697C76.3997 124.697 74.6738 126.42 74.6738 128.457C74.6738 130.493 76.3997 132.217 78.4393 132.217C80.479 132.217 82.2049 130.493 82.2049 128.457C82.2049 126.42 80.479 124.697 78.4393 124.697Z" fill="#FC8B0B"/>
<path d="M78.4393 124.697C76.3997 124.697 74.6738 126.42 74.6738 128.457C74.6738 130.493 76.3997 132.217 78.4393 132.217C80.479 132.217 82.2049 130.493 82.2049 128.457C82.2049 126.42 80.479 124.697 78.4393 124.697Z" fill="black" fill-opacity="0.2"/>
<path d="M61.0243 124.697C58.9847 124.697 57.2588 126.42 57.2588 128.457C57.2588 130.493 58.9847 132.217 61.0243 132.217C63.064 132.217 64.7898 130.493 64.7898 128.457C64.7898 126.42 63.2209 124.697 61.0243 124.697Z" fill="#FC8B0B"/>
<path d="M61.0243 124.697C58.9847 124.697 57.2588 126.42 57.2588 128.457C57.2588 130.493 58.9847 132.217 61.0243 132.217C63.064 132.217 64.7898 130.493 64.7898 128.457C64.7898 126.42 63.2209 124.697 61.0243 124.697Z" fill="black" fill-opacity="0.2"/>
<path d="M43.7655 124.697C41.7258 124.697 40 126.42 40 128.457C40 130.493 41.7258 132.217 43.7655 132.217C45.8052 132.217 47.531 130.493 47.531 128.457C47.531 126.42 45.8052 124.697 43.7655 124.697Z" fill="#FC8B0B"/>
<path d="M43.7655 124.697C41.7258 124.697 40 126.42 40 128.457C40 130.493 41.7258 132.217 43.7655 132.217C45.8052 132.217 47.531 130.493 47.531 128.457C47.531 126.42 45.8052 124.697 43.7655 124.697Z" fill="black" fill-opacity="0.2"/>
<path d="M199.878 60.6197C201.917 60.6197 203.643 58.8964 203.643 56.8597C203.643 54.8231 201.917 53.0997 199.878 53.0997C197.838 53.0997 196.112 54.8231 196.112 56.8597C196.112 58.8964 197.681 60.6197 199.878 60.6197Z" fill="#FC8B0B"/>
<path d="M199.878 60.6197C201.917 60.6197 203.643 58.8964 203.643 56.8597C203.643 54.8231 201.917 53.0997 199.878 53.0997C197.838 53.0997 196.112 54.8231 196.112 56.8597C196.112 58.8964 197.681 60.6197 199.878 60.6197Z" fill="black" fill-opacity="0.2"/>
<path d="M186.228 56.7036C186.228 54.627 184.542 52.9436 182.463 52.9436C180.383 52.9436 178.697 54.627 178.697 56.7036C178.697 58.7802 180.383 60.4636 182.463 60.4636C184.542 60.4636 186.228 58.7802 186.228 56.7036Z" fill="#FC8B0B"/>
<path d="M186.228 56.7036C186.228 54.627 184.542 52.9436 182.463 52.9436C180.383 52.9436 178.697 54.627 178.697 56.7036C178.697 58.7802 180.383 60.4636 182.463 60.4636C184.542 60.4636 186.228 58.7802 186.228 56.7036Z" fill="black" fill-opacity="0.2"/>
<path d="M165.204 52.9436C163.164 52.9436 161.438 54.6669 161.438 56.7036C161.438 58.7403 163.164 60.4636 165.204 60.4636C167.244 60.4636 168.97 58.7403 168.97 56.7036C168.97 54.6669 167.244 52.9436 165.204 52.9436Z" fill="#FC8B0B"/>
<path d="M165.204 52.9436C163.164 52.9436 161.438 54.6669 161.438 56.7036C161.438 58.7403 163.164 60.4636 165.204 60.4636C167.244 60.4636 168.97 58.7403 168.97 56.7036C168.97 54.6669 167.244 52.9436 165.204 52.9436Z" fill="black" fill-opacity="0.2"/>
<path d="M151.554 56.7036C151.554 54.627 149.868 52.9436 147.788 52.9436C145.708 52.9436 144.022 54.627 144.022 56.7036C144.022 58.7802 145.708 60.4636 147.788 60.4636C149.868 60.4636 151.554 58.7802 151.554 56.7036Z" fill="#FC8B0B"/>
<path d="M151.554 56.7036C151.554 54.627 149.868 52.9436 147.788 52.9436C145.708 52.9436 144.022 54.627 144.022 56.7036C144.022 58.7802 145.708 60.4636 147.788 60.4636C149.868 60.4636 151.554 58.7802 151.554 56.7036Z" fill="black" fill-opacity="0.2"/>
<path d="M134.138 56.7036C134.138 54.627 132.453 52.9436 130.373 52.9436C128.293 52.9436 126.607 54.627 126.607 56.7036C126.607 58.7802 128.293 60.4636 130.373 60.4636C132.453 60.4636 134.138 58.7802 134.138 56.7036Z" fill="#FC8B0B"/>
<path d="M134.138 56.7036C134.138 54.627 132.453 52.9436 130.373 52.9436C128.293 52.9436 126.607 54.627 126.607 56.7036C126.607 58.7802 128.293 60.4636 130.373 60.4636C132.453 60.4636 134.138 58.7802 134.138 56.7036Z" fill="black" fill-opacity="0.2"/>
<path d="M113.114 52.9436C111.074 52.9436 109.349 54.6669 109.349 56.7036C109.349 58.7403 111.074 60.4636 113.114 60.4636C115.154 60.4636 116.88 58.7403 116.88 56.7036C116.88 54.6669 115.154 52.9436 113.114 52.9436Z" fill="#FC8B0B"/>
<path d="M113.114 52.9436C111.074 52.9436 109.349 54.6669 109.349 56.7036C109.349 58.7403 111.074 60.4636 113.114 60.4636C115.154 60.4636 116.88 58.7403 116.88 56.7036C116.88 54.6669 115.154 52.9436 113.114 52.9436Z" fill="black" fill-opacity="0.2"/>
<path d="M99.4637 56.7036C99.4637 54.627 97.7778 52.9436 95.6981 52.9436C93.6185 52.9436 91.9326 54.627 91.9326 56.7036C91.9326 58.7802 93.6185 60.4636 95.6981 60.4636C97.7778 60.4636 99.4637 58.7802 99.4637 56.7036Z" fill="#FC8B0B"/>
<path d="M99.4637 56.7036C99.4637 54.627 97.7778 52.9436 95.6981 52.9436C93.6185 52.9436 91.9326 54.627 91.9326 56.7036C91.9326 58.7802 93.6185 60.4636 95.6981 60.4636C97.7778 60.4636 99.4637 58.7802 99.4637 56.7036Z" fill="black" fill-opacity="0.2"/>
<path d="M199.878 70.9603C197.838 70.9603 196.112 72.6837 196.112 74.7203C196.112 76.757 197.838 78.4803 199.878 78.4803C201.917 78.4803 203.643 76.757 203.643 74.7203C203.643 72.6837 201.917 70.9603 199.878 70.9603Z" fill="#FC8B0B"/>
<path d="M199.878 70.9603C197.838 70.9603 196.112 72.6837 196.112 74.7203C196.112 76.757 197.838 78.4803 199.878 78.4803C201.917 78.4803 203.643 76.757 203.643 74.7203C203.643 72.6837 201.917 70.9603 199.878 70.9603Z" fill="black" fill-opacity="0.2"/>
<path d="M186.228 74.7203C186.228 72.6437 184.542 70.9603 182.463 70.9603C180.383 70.9603 178.697 72.6437 178.697 74.7203C178.697 76.7969 180.383 78.4803 182.463 78.4803C184.542 78.4803 186.228 76.7969 186.228 74.7203Z" fill="#FC8B0B"/>
<path d="M186.228 74.7203C186.228 72.6437 184.542 70.9603 182.463 70.9603C180.383 70.9603 178.697 72.6437 178.697 74.7203C178.697 76.7969 180.383 78.4803 182.463 78.4803C184.542 78.4803 186.228 76.7969 186.228 74.7203Z" fill="black" fill-opacity="0.2"/>
<path d="M165.204 70.9603C163.164 70.9603 161.438 72.6837 161.438 74.7203C161.438 76.757 163.164 78.4803 165.204 78.4803C167.244 78.4803 168.97 76.757 168.97 74.7203C168.97 72.6837 167.244 70.9603 165.204 70.9603Z" fill="#FC8B0B"/>
<path d="M165.204 70.9603C163.164 70.9603 161.438 72.6837 161.438 74.7203C161.438 76.757 163.164 78.4803 165.204 78.4803C167.244 78.4803 168.97 76.757 168.97 74.7203C168.97 72.6837 167.244 70.9603 165.204 70.9603Z" fill="black" fill-opacity="0.2"/>
<path d="M151.554 74.7203C151.554 72.6437 149.868 70.9603 147.788 70.9603C145.708 70.9603 144.022 72.6437 144.022 74.7203C144.022 76.7969 145.708 78.4803 147.788 78.4803C149.868 78.4803 151.554 76.7969 151.554 74.7203Z" fill="#FC8B0B"/>
<path d="M151.554 74.7203C151.554 72.6437 149.868 70.9603 147.788 70.9603C145.708 70.9603 144.022 72.6437 144.022 74.7203C144.022 76.7969 145.708 78.4803 147.788 78.4803C149.868 78.4803 151.554 76.7969 151.554 74.7203Z" fill="black" fill-opacity="0.2"/>
<path d="M134.138 74.7203C134.138 72.6437 132.453 70.9603 130.373 70.9603C128.293 70.9603 126.607 72.6437 126.607 74.7203C126.607 76.7969 128.293 78.4803 130.373 78.4803C132.453 78.4803 134.138 76.7969 134.138 74.7203Z" fill="#FC8B0B"/>
<path d="M134.138 74.7203C134.138 72.6437 132.453 70.9603 130.373 70.9603C128.293 70.9603 126.607 72.6437 126.607 74.7203C126.607 76.7969 128.293 78.4803 130.373 78.4803C132.453 78.4803 134.138 76.7969 134.138 74.7203Z" fill="black" fill-opacity="0.2"/>
<path d="M113.114 70.9603C111.074 70.9603 109.349 72.6837 109.349 74.7203C109.349 76.757 111.074 78.4803 113.114 78.4803C115.154 78.4803 116.88 76.757 116.88 74.7203C116.88 72.6837 115.154 70.9603 113.114 70.9603Z" fill="#FC8B0B"/>
<path d="M113.114 70.9603C111.074 70.9603 109.349 72.6837 109.349 74.7203C109.349 76.757 111.074 78.4803 113.114 78.4803C115.154 78.4803 116.88 76.757 116.88 74.7203C116.88 72.6837 115.154 70.9603 113.114 70.9603Z" fill="black" fill-opacity="0.2"/>
<path d="M99.4637 74.7203C99.4637 72.6437 97.7778 70.9603 95.6981 70.9603C93.6185 70.9603 91.9326 72.6437 91.9326 74.7203C91.9326 76.7969 93.6185 78.4803 95.6981 78.4803C97.7778 78.4803 99.4637 76.7969 99.4637 74.7203Z" fill="#FC8B0B"/>
<path d="M99.4637 74.7203C99.4637 72.6437 97.7778 70.9603 95.6981 70.9603C93.6185 70.9603 91.9326 72.6437 91.9326 74.7203C91.9326 76.7969 93.6185 78.4803 95.6981 78.4803C97.7778 78.4803 99.4637 76.7969 99.4637 74.7203Z" fill="black" fill-opacity="0.2"/>
<path d="M199.878 88.8202C197.838 88.8202 196.112 90.5435 196.112 92.5802C196.112 94.6169 197.838 96.3402 199.878 96.3402C201.917 96.3402 203.643 94.6169 203.643 92.5802C203.643 90.5435 201.917 88.8202 199.878 88.8202Z" fill="#FC8B0B"/>
<path d="M199.878 88.8202C197.838 88.8202 196.112 90.5435 196.112 92.5802C196.112 94.6169 197.838 96.3402 199.878 96.3402C201.917 96.3402 203.643 94.6169 203.643 92.5802C203.643 90.5435 201.917 88.8202 199.878 88.8202Z" fill="black" fill-opacity="0.2"/>
<path d="M182.463 88.8202C180.423 88.8202 178.697 90.5435 178.697 92.5802C178.697 94.6169 180.423 96.3402 182.463 96.3402C184.502 96.3402 186.228 94.6169 186.228 92.5802C186.228 90.5435 184.659 88.8202 182.463 88.8202Z" fill="#FC8B0B"/>
<path d="M182.463 88.8202C180.423 88.8202 178.697 90.5435 178.697 92.5802C178.697 94.6169 180.423 96.3402 182.463 96.3402C184.502 96.3402 186.228 94.6169 186.228 92.5802C186.228 90.5435 184.659 88.8202 182.463 88.8202Z" fill="black" fill-opacity="0.2"/>
<path d="M165.204 88.8202C163.164 88.8202 161.438 90.5435 161.438 92.5802C161.438 94.6169 163.164 96.3402 165.204 96.3402C167.244 96.3402 168.97 94.6169 168.97 92.5802C168.97 90.5435 167.244 88.8202 165.204 88.8202Z" fill="#FC8B0B"/>
<path d="M165.204 88.8202C163.164 88.8202 161.438 90.5435 161.438 92.5802C161.438 94.6169 163.164 96.3402 165.204 96.3402C167.244 96.3402 168.97 94.6169 168.97 92.5802C168.97 90.5435 167.244 88.8202 165.204 88.8202Z" fill="black" fill-opacity="0.2"/>
<path d="M147.788 88.8202C145.748 88.8202 144.022 90.5435 144.022 92.5802C144.022 94.6169 145.748 96.3402 147.788 96.3402C149.828 96.3402 151.554 94.6169 151.554 92.5802C151.554 90.5435 149.828 88.8202 147.788 88.8202Z" fill="#FC8B0B"/>
<path d="M147.788 88.8202C145.748 88.8202 144.022 90.5435 144.022 92.5802C144.022 94.6169 145.748 96.3402 147.788 96.3402C149.828 96.3402 151.554 94.6169 151.554 92.5802C151.554 90.5435 149.828 88.8202 147.788 88.8202Z" fill="black" fill-opacity="0.2"/>
<path d="M130.373 88.8202C128.333 88.8202 126.607 90.5435 126.607 92.5802C126.607 94.6169 128.333 96.3402 130.373 96.3402C132.413 96.3402 134.138 94.6169 134.138 92.5802C134.295 90.5435 132.569 88.8202 130.373 88.8202Z" fill="#FC8B0B"/>
<path d="M130.373 88.8202C128.333 88.8202 126.607 90.5435 126.607 92.5802C126.607 94.6169 128.333 96.3402 130.373 96.3402C132.413 96.3402 134.138 94.6169 134.138 92.5802C134.295 90.5435 132.569 88.8202 130.373 88.8202Z" fill="black" fill-opacity="0.2"/>
<path d="M113.114 88.8202C111.074 88.8202 109.349 90.5435 109.349 92.5802C109.349 94.6169 111.074 96.3402 113.114 96.3402C115.154 96.3402 116.88 94.6169 116.88 92.5802C116.88 90.5435 115.154 88.8202 113.114 88.8202Z" fill="#FC8B0B"/>
<path d="M113.114 88.8202C111.074 88.8202 109.349 90.5435 109.349 92.5802C109.349 94.6169 111.074 96.3402 113.114 96.3402C115.154 96.3402 116.88 94.6169 116.88 92.5802C116.88 90.5435 115.154 88.8202 113.114 88.8202Z" fill="black" fill-opacity="0.2"/>
<path d="M95.6981 88.8202C93.6585 88.8202 91.9326 90.5435 91.9326 92.5802C91.9326 94.6169 93.6585 96.3402 95.6981 96.3402C97.7378 96.3402 99.4637 94.6169 99.4637 92.5802C99.6205 90.5435 97.8947 88.8202 95.6981 88.8202Z" fill="#FC8B0B"/>
<path d="M95.6981 88.8202C93.6585 88.8202 91.9326 90.5435 91.9326 92.5802C91.9326 94.6169 93.6585 96.3402 95.6981 96.3402C97.7378 96.3402 99.4637 94.6169 99.4637 92.5802C99.6205 90.5435 97.8947 88.8202 95.6981 88.8202Z" fill="black" fill-opacity="0.2"/>
<path d="M199.878 106.837C197.838 106.837 196.112 108.56 196.112 110.597C196.112 112.633 197.838 114.357 199.878 114.357C201.917 114.357 203.643 112.633 203.643 110.597C203.643 108.56 201.917 106.837 199.878 106.837Z" fill="#FC8B0B"/>
<path d="M199.878 106.837C197.838 106.837 196.112 108.56 196.112 110.597C196.112 112.633 197.838 114.357 199.878 114.357C201.917 114.357 203.643 112.633 203.643 110.597C203.643 108.56 201.917 106.837 199.878 106.837Z" fill="black" fill-opacity="0.2"/>
<path d="M182.463 106.837C180.423 106.837 178.697 108.56 178.697 110.597C178.697 112.633 180.423 114.357 182.463 114.357C184.502 114.357 186.228 112.633 186.228 110.597C186.228 108.56 184.659 106.837 182.463 106.837Z" fill="#FC8B0B"/>
<path d="M182.463 106.837C180.423 106.837 178.697 108.56 178.697 110.597C178.697 112.633 180.423 114.357 182.463 114.357C184.502 114.357 186.228 112.633 186.228 110.597C186.228 108.56 184.659 106.837 182.463 106.837Z" fill="black" fill-opacity="0.2"/>
<path d="M165.204 106.837C163.164 106.837 161.438 108.56 161.438 110.597C161.438 112.633 163.164 114.357 165.204 114.357C167.244 114.357 168.97 112.633 168.97 110.597C168.97 108.56 167.244 106.837 165.204 106.837Z" fill="#FC8B0B"/>
<path d="M165.204 106.837C163.164 106.837 161.438 108.56 161.438 110.597C161.438 112.633 163.164 114.357 165.204 114.357C167.244 114.357 168.97 112.633 168.97 110.597C168.97 108.56 167.244 106.837 165.204 106.837Z" fill="black" fill-opacity="0.2"/>
<path d="M147.788 106.837C145.748 106.837 144.022 108.56 144.022 110.597C144.022 112.633 145.748 114.357 147.788 114.357C149.828 114.357 151.554 112.633 151.554 110.597C151.554 108.56 149.828 106.837 147.788 106.837Z" fill="#FC8B0B"/>
<path d="M147.788 106.837C145.748 106.837 144.022 108.56 144.022 110.597C144.022 112.633 145.748 114.357 147.788 114.357C149.828 114.357 151.554 112.633 151.554 110.597C151.554 108.56 149.828 106.837 147.788 106.837Z" fill="black" fill-opacity="0.2"/>
<path d="M130.373 106.837C128.333 106.837 126.607 108.56 126.607 110.597C126.607 112.633 128.333 114.357 130.373 114.357C132.413 114.357 134.138 112.633 134.138 110.597C134.295 108.56 132.569 106.837 130.373 106.837Z" fill="#FC8B0B"/>
<path d="M130.373 106.837C128.333 106.837 126.607 108.56 126.607 110.597C126.607 112.633 128.333 114.357 130.373 114.357C132.413 114.357 134.138 112.633 134.138 110.597C134.295 108.56 132.569 106.837 130.373 106.837Z" fill="black" fill-opacity="0.2"/>
<path d="M113.114 106.837C111.074 106.837 109.349 108.56 109.349 110.597C109.349 112.633 111.074 114.357 113.114 114.357C115.154 114.357 116.88 112.633 116.88 110.597C116.88 108.56 115.154 106.837 113.114 106.837Z" fill="#FC8B0B"/>
<path d="M113.114 106.837C111.074 106.837 109.349 108.56 109.349 110.597C109.349 112.633 111.074 114.357 113.114 114.357C115.154 114.357 116.88 112.633 116.88 110.597C116.88 108.56 115.154 106.837 113.114 106.837Z" fill="black" fill-opacity="0.2"/>
<path d="M95.6981 106.837C93.6585 106.837 91.9326 108.56 91.9326 110.597C91.9326 112.633 93.6585 114.357 95.6981 114.357C97.7378 114.357 99.4637 112.633 99.4637 110.597C99.6205 108.56 97.8947 106.837 95.6981 106.837Z" fill="#FC8B0B"/>
<path d="M95.6981 106.837C93.6585 106.837 91.9326 108.56 91.9326 110.597C91.9326 112.633 93.6585 114.357 95.6981 114.357C97.7378 114.357 99.4637 112.633 99.4637 110.597C99.6205 108.56 97.8947 106.837 95.6981 106.837Z" fill="black" fill-opacity="0.2"/>
<path d="M199.878 124.697C197.838 124.697 196.112 126.42 196.112 128.457C196.112 130.493 197.838 132.217 199.878 132.217C201.917 132.217 203.643 130.493 203.643 128.457C203.643 126.42 201.917 124.697 199.878 124.697Z" fill="#FC8B0B"/>
<path d="M199.878 124.697C197.838 124.697 196.112 126.42 196.112 128.457C196.112 130.493 197.838 132.217 199.878 132.217C201.917 132.217 203.643 130.493 203.643 128.457C203.643 126.42 201.917 124.697 199.878 124.697Z" fill="black" fill-opacity="0.2"/>
<path d="M182.463 124.697C180.423 124.697 178.697 126.42 178.697 128.457C178.697 130.493 180.423 132.217 182.463 132.217C184.502 132.217 186.228 130.493 186.228 128.457C186.228 126.42 184.659 124.697 182.463 124.697Z" fill="#FC8B0B"/>
<path d="M182.463 124.697C180.423 124.697 178.697 126.42 178.697 128.457C178.697 130.493 180.423 132.217 182.463 132.217C184.502 132.217 186.228 130.493 186.228 128.457C186.228 126.42 184.659 124.697 182.463 124.697Z" fill="black" fill-opacity="0.2"/>
<path d="M165.204 124.697C163.164 124.697 161.438 126.42 161.438 128.457C161.438 130.493 163.164 132.217 165.204 132.217C167.244 132.217 168.97 130.493 168.97 128.457C168.97 126.42 167.244 124.697 165.204 124.697Z" fill="#FC8B0B"/>
<path d="M165.204 124.697C163.164 124.697 161.438 126.42 161.438 128.457C161.438 130.493 163.164 132.217 165.204 132.217C167.244 132.217 168.97 130.493 168.97 128.457C168.97 126.42 167.244 124.697 165.204 124.697Z" fill="black" fill-opacity="0.2"/>
<path d="M147.788 124.697C145.748 124.697 144.022 126.42 144.022 128.457C144.022 130.493 145.748 132.217 147.788 132.217C149.828 132.217 151.554 130.493 151.554 128.457C151.554 126.42 149.828 124.697 147.788 124.697Z" fill="#FC8B0B"/>
<path d="M147.788 124.697C145.748 124.697 144.022 126.42 144.022 128.457C144.022 130.493 145.748 132.217 147.788 132.217C149.828 132.217 151.554 130.493 151.554 128.457C151.554 126.42 149.828 124.697 147.788 124.697Z" fill="black" fill-opacity="0.2"/>
<path d="M130.373 124.697C128.333 124.697 126.607 126.42 126.607 128.457C126.607 130.493 128.333 132.217 130.373 132.217C132.413 132.217 134.138 130.493 134.138 128.457C134.138 126.42 132.569 124.697 130.373 124.697Z" fill="#FC8B0B"/>
<path d="M130.373 124.697C128.333 124.697 126.607 126.42 126.607 128.457C126.607 130.493 128.333 132.217 130.373 132.217C132.413 132.217 134.138 130.493 134.138 128.457C134.138 126.42 132.569 124.697 130.373 124.697Z" fill="black" fill-opacity="0.2"/>
<path d="M113.114 124.697C111.074 124.697 109.349 126.42 109.349 128.457C109.349 130.493 111.074 132.217 113.114 132.217C115.154 132.217 116.88 130.493 116.88 128.457C116.88 126.42 115.154 124.697 113.114 124.697Z" fill="#FC8B0B"/>
<path d="M113.114 124.697C111.074 124.697 109.349 126.42 109.349 128.457C109.349 130.493 111.074 132.217 113.114 132.217C115.154 132.217 116.88 130.493 116.88 128.457C116.88 126.42 115.154 124.697 113.114 124.697Z" fill="black" fill-opacity="0.2"/>
<path d="M95.6981 124.697C93.6585 124.697 91.9326 126.42 91.9326 128.457C91.9326 130.493 93.6585 132.217 95.6981 132.217C97.7378 132.217 99.4637 130.493 99.4637 128.457C99.4637 126.42 97.8947 124.697 95.6981 124.697Z" fill="#FC8B0B"/>
<path d="M95.6981 124.697C93.6585 124.697 91.9326 126.42 91.9326 128.457C91.9326 130.493 93.6585 132.217 95.6981 132.217C97.7378 132.217 99.4637 130.493 99.4637 128.457C99.4637 126.42 97.8947 124.697 95.6981 124.697Z" fill="black" fill-opacity="0.2"/>
</g>
<g clip-path="url(#clip1_235_2)">
<path d="M537.796 576.783C535.756 576.783 534.03 578.506 534.03 580.543C534.03 582.58 535.756 584.303 537.796 584.303C539.835 584.303 541.561 582.58 541.561 580.543C541.561 578.506 539.835 576.783 537.796 576.783Z" fill="#9D9D9D"/>
<path d="M520.382 576.783C518.342 576.783 516.616 578.506 516.616 580.543C516.616 582.58 518.342 584.303 520.382 584.303C522.421 584.303 524.147 582.58 524.147 580.543C524.304 578.506 522.578 576.783 520.382 576.783Z" fill="#9D9D9D"/>
<path d="M503.123 576.783C501.083 576.783 499.357 578.506 499.357 580.543C499.357 582.58 501.083 584.303 503.123 584.303C505.163 584.303 506.888 582.58 506.888 580.543C506.888 578.506 505.163 576.783 503.123 576.783Z" fill="#9D9D9D"/>
<path d="M537.796 594.8C535.756 594.8 534.03 596.523 534.03 598.56C534.03 600.596 535.756 602.32 537.796 602.32C539.835 602.32 541.561 600.596 541.561 598.56C541.561 596.523 539.835 594.8 537.796 594.8Z" fill="#9D9D9D"/>
<path d="M520.382 594.8C518.342 594.8 516.616 596.523 516.616 598.56C516.616 600.596 518.342 602.32 520.382 602.32C522.421 602.32 524.147 600.596 524.147 598.56C524.147 596.523 522.578 594.8 520.382 594.8Z" fill="#9D9D9D"/>
<path d="M503.123 594.8C501.083 594.8 499.357 596.523 499.357 598.56C499.357 600.596 501.083 602.32 503.123 602.32C505.163 602.32 506.888 600.596 506.888 598.56C506.888 596.523 505.163 594.8 503.123 594.8Z" fill="#9D9D9D"/>
<path d="M541.561 616.576C541.561 614.5 539.875 612.816 537.796 612.816C535.716 612.816 534.03 614.5 534.03 616.576C534.03 618.653 535.716 620.336 537.796 620.336C539.875 620.336 541.561 618.653 541.561 616.576Z" fill="#9D9D9D"/>
<path d="M524.147 616.576C524.147 614.5 522.461 612.816 520.382 612.816C518.302 612.816 516.616 614.5 516.616 616.576C516.616 618.653 518.302 620.336 520.382 620.336C522.461 620.336 524.147 618.653 524.147 616.576Z" fill="#9D9D9D"/>
<path d="M506.888 616.576C506.888 614.5 505.203 612.816 503.123 612.816C501.043 612.816 499.357 614.5 499.357 616.576C499.357 618.653 501.043 620.336 503.123 620.336C505.203 620.336 506.888 618.653 506.888 616.576Z" fill="#9D9D9D"/>
<path d="M537.796 630.677C535.756 630.677 534.03 632.4 534.03 634.437C534.03 636.474 535.756 638.197 537.796 638.197C539.835 638.197 541.561 636.474 541.561 634.437C541.561 632.4 539.835 630.677 537.796 630.677Z" fill="#9D9D9D"/>
<path d="M520.382 630.677C518.342 630.677 516.616 632.4 516.616 634.437C516.616 636.474 518.342 638.197 520.382 638.197C522.421 638.197 524.147 636.474 524.147 634.437C524.147 632.4 522.578 630.677 520.382 630.677Z" fill="#9D9D9D"/>
<path d="M503.123 630.677C501.083 630.677 499.357 632.4 499.357 634.437C499.357 636.474 501.083 638.197 503.123 638.197C505.163 638.197 506.888 636.474 506.888 634.437C506.888 632.4 505.163 630.677 503.123 630.677Z" fill="#9D9D9D"/>
<path d="M537.796 648.694C535.756 648.694 534.03 650.417 534.03 652.454C534.03 654.49 535.756 656.214 537.796 656.214C539.835 656.214 541.561 654.49 541.561 652.454C541.561 650.417 539.835 648.694 537.796 648.694Z" fill="#9D9D9D"/>
<path d="M520.382 648.694C518.342 648.694 516.616 650.417 516.616 652.454C516.616 654.49 518.342 656.214 520.382 656.214C522.421 656.214 524.147 654.49 524.147 652.454C524.304 650.417 522.578 648.694 520.382 648.694Z" fill="#9D9D9D"/>
<path d="M503.123 648.694C501.083 648.694 499.357 650.417 499.357 652.454C499.357 654.49 501.083 656.214 503.123 656.214C505.163 656.214 506.888 654.49 506.888 652.454C506.888 650.417 505.163 648.694 503.123 648.694Z" fill="#9D9D9D"/>
<path d="M659.234 584.461C661.274 584.461 663 582.737 663 580.701C663 578.664 661.274 576.941 659.234 576.941C657.195 576.941 655.469 578.664 655.469 580.701C655.469 582.737 657.038 584.461 659.234 584.461Z" fill="#9D9D9D"/>
<path d="M641.82 576.783C639.781 576.783 638.055 578.506 638.055 580.543C638.055 582.58 639.781 584.303 641.82 584.303C643.86 584.303 645.586 582.58 645.586 580.543C645.586 578.506 644.017 576.783 641.82 576.783Z" fill="#9D9D9D"/>
<path d="M624.561 576.783C622.522 576.783 620.796 578.506 620.796 580.543C620.796 582.58 622.522 584.303 624.561 584.303C626.601 584.303 628.327 582.58 628.327 580.543C628.327 578.506 626.601 576.783 624.561 576.783Z" fill="#9D9D9D"/>
<path d="M607.144 576.783C605.105 576.783 603.379 578.506 603.379 580.543C603.379 582.58 605.105 584.303 607.144 584.303C609.184 584.303 610.91 582.58 610.91 580.543C610.91 578.506 609.341 576.783 607.144 576.783Z" fill="#9D9D9D"/>
<path d="M589.887 576.783C587.847 576.783 586.121 578.506 586.121 580.543C586.121 582.58 587.847 584.303 589.887 584.303C591.926 584.303 593.652 582.58 593.652 580.543C593.652 578.506 591.926 576.783 589.887 576.783Z" fill="#9D9D9D"/>
<path d="M572.472 576.783C570.432 576.783 568.706 578.506 568.706 580.543C568.706 582.58 570.432 584.303 572.472 584.303C574.511 584.303 576.237 582.58 576.237 580.543C576.237 578.506 574.511 576.783 572.472 576.783Z" fill="#9D9D9D"/>
<path d="M555.055 576.783C553.015 576.783 551.289 578.506 551.289 580.543C551.289 582.58 553.015 584.303 555.055 584.303C557.094 584.303 558.82 582.58 558.82 580.543C558.977 578.506 557.251 576.783 555.055 576.783Z" fill="#9D9D9D"/>
<path d="M659.234 594.8C657.195 594.8 655.469 596.523 655.469 598.56C655.469 600.596 657.195 602.32 659.234 602.32C661.274 602.32 663 600.596 663 598.56C663 596.523 661.274 594.8 659.234 594.8Z" fill="#9D9D9D"/>
<path d="M641.82 594.8C639.781 594.8 638.055 596.523 638.055 598.56C638.055 600.596 639.781 602.32 641.82 602.32C643.86 602.32 645.586 600.596 645.586 598.56C645.586 596.523 644.017 594.8 641.82 594.8Z" fill="#9D9D9D"/>
<path d="M624.561 594.8C622.522 594.8 620.796 596.523 620.796 598.56C620.796 600.596 622.522 602.32 624.561 602.32C626.601 602.32 628.327 600.596 628.327 598.56C628.327 596.523 626.601 594.8 624.561 594.8Z" fill="#9D9D9D"/>
<path d="M607.144 594.8C605.105 594.8 603.379 596.523 603.379 598.56C603.379 600.596 605.105 602.32 607.144 602.32C609.184 602.32 610.91 600.596 610.91 598.56C610.91 596.523 609.341 594.8 607.144 594.8Z" fill="#9D9D9D"/>
<path d="M589.887 594.8C587.847 594.8 586.121 596.523 586.121 598.56C586.121 600.596 587.847 602.32 589.887 602.32C591.926 602.32 593.652 600.596 593.652 598.56C593.652 596.523 591.926 594.8 589.887 594.8Z" fill="#9D9D9D"/>
<path d="M572.472 594.8C570.432 594.8 568.706 596.523 568.706 598.56C568.706 600.596 570.432 602.32 572.472 602.32C574.511 602.32 576.237 600.596 576.237 598.56C576.237 596.523 574.511 594.8 572.472 594.8Z" fill="#9D9D9D"/>
<path d="M555.055 594.8C553.015 594.8 551.289 596.523 551.289 598.56C551.289 600.596 553.015 602.32 555.055 602.32C557.094 602.32 558.82 600.596 558.82 598.56C558.82 596.523 557.251 594.8 555.055 594.8Z" fill="#9D9D9D"/>
<path d="M659.234 612.816C657.195 612.816 655.469 614.54 655.469 616.576C655.469 618.613 657.195 620.336 659.234 620.336C661.274 620.336 663 618.613 663 616.576C663 614.54 661.274 612.816 659.234 612.816Z" fill="#9D9D9D"/>
<path d="M641.82 612.816C639.781 612.816 638.055 614.54 638.055 616.576C638.055 618.613 639.781 620.336 641.82 620.336C643.86 620.336 645.586 618.613 645.586 616.576C645.586 614.54 644.017 612.816 641.82 612.816Z" fill="#9D9D9D"/>
<path d="M624.561 612.816C622.522 612.816 620.796 614.54 620.796 616.576C620.796 618.613 622.522 620.336 624.561 620.336C626.601 620.336 628.327 618.613 628.327 616.576C628.327 614.54 626.601 612.816 624.561 612.816Z" fill="#9D9D9D"/>
<path d="M607.144 612.816C605.105 612.816 603.379 614.54 603.379 616.576C603.379 618.613 605.105 620.336 607.144 620.336C609.184 620.336 610.91 618.613 610.91 616.576C610.91 614.54 609.341 612.816 607.144 612.816Z" fill="#9D9D9D"/>
<path d="M593.652 616.576C593.652 614.5 591.966 612.816 589.887 612.816C587.807 612.816 586.121 614.5 586.121 616.576C586.121 618.653 587.807 620.336 589.887 620.336C591.966 620.336 593.652 618.653 593.652 616.576Z" fill="#9D9D9D"/>
<path d="M572.472 612.816C570.432 612.816 568.706 614.54 568.706 616.576C568.706 618.613 570.432 620.336 572.472 620.336C574.511 620.336 576.237 618.613 576.237 616.576C576.237 614.54 574.511 612.816 572.472 612.816Z" fill="#9D9D9D"/>
<path d="M555.055 612.816C553.015 612.816 551.289 614.54 551.289 616.576C551.289 618.613 553.015 620.336 555.055 620.336C557.094 620.336 558.82 618.613 558.82 616.576C558.977 614.54 557.251 612.816 555.055 612.816Z" fill="#9D9D9D"/>
<path d="M659.234 630.677C657.195 630.677 655.469 632.4 655.469 634.437C655.469 636.474 657.195 638.197 659.234 638.197C661.274 638.197 663 636.474 663 634.437C663 632.4 661.274 630.677 659.234 630.677Z" fill="#9D9D9D"/>
<path d="M641.82 630.677C639.781 630.677 638.055 632.4 638.055 634.437C638.055 636.474 639.781 638.197 641.82 638.197C643.86 638.197 645.586 636.474 645.586 634.437C645.586 632.4 644.017 630.677 641.82 630.677Z" fill="#9D9D9D"/>
<path d="M624.561 630.677C622.522 630.677 620.796 632.4 620.796 634.437C620.796 636.474 622.522 638.197 624.561 638.197C626.601 638.197 628.327 636.474 628.327 634.437C628.327 632.4 626.601 630.677 624.561 630.677Z" fill="#9D9D9D"/>
<path d="M607.144 630.677C605.105 630.677 603.379 632.4 603.379 634.437C603.379 636.474 605.105 638.197 607.144 638.197C609.184 638.197 610.91 636.474 610.91 634.437C610.91 632.4 609.341 630.677 607.144 630.677Z" fill="#9D9D9D"/>
<path d="M589.887 630.677C587.847 630.677 586.121 632.4 586.121 634.437C586.121 636.474 587.847 638.197 589.887 638.197C591.926 638.197 593.652 636.474 593.652 634.437C593.652 632.4 591.926 630.677 589.887 630.677Z" fill="#9D9D9D"/>
<path d="M572.472 630.677C570.432 630.677 568.706 632.4 568.706 634.437C568.706 636.474 570.432 638.197 572.472 638.197C574.511 638.197 576.237 636.474 576.237 634.437C576.237 632.4 574.511 630.677 572.472 630.677Z" fill="#9D9D9D"/>
<path d="M555.055 630.677C553.015 630.677 551.289 632.4 551.289 634.437C551.289 636.474 553.015 638.197 555.055 638.197C557.094 638.197 558.82 636.474 558.82 634.437C558.82 632.4 557.251 630.677 555.055 630.677Z" fill="#9D9D9D"/>
<path d="M659.234 648.694C657.195 648.694 655.469 650.417 655.469 652.454C655.469 654.49 657.195 656.214 659.234 656.214C661.274 656.214 663 654.49 663 652.454C663 650.417 661.274 648.694 659.234 648.694Z" fill="#9D9D9D"/>
<path d="M641.82 648.694C639.781 648.694 638.055 650.417 638.055 652.454C638.055 654.49 639.781 656.214 641.82 656.214C643.86 656.214 645.586 654.49 645.586 652.454C645.586 650.417 644.017 648.694 641.82 648.694Z" fill="#9D9D9D"/>
<path d="M624.561 648.694C622.522 648.694 620.796 650.417 620.796 652.454C620.796 654.49 622.522 656.214 624.561 656.214C626.601 656.214 628.327 654.49 628.327 652.454C628.327 650.417 626.601 648.694 624.561 648.694Z" fill="#9D9D9D"/>
<path d="M607.144 648.694C605.105 648.694 603.379 650.417 603.379 652.454C603.379 654.49 605.105 656.214 607.144 656.214C609.184 656.214 610.91 654.49 610.91 652.454C610.91 650.417 609.341 648.694 607.144 648.694Z" fill="#9D9D9D"/>
<path d="M589.887 648.694C587.847 648.694 586.121 650.417 586.121 652.454C586.121 654.49 587.847 656.214 589.887 656.214C591.926 656.214 593.652 654.49 593.652 652.454C593.652 650.417 591.926 648.694 589.887 648.694Z" fill="#9D9D9D"/>
<path d="M572.472 648.694C570.432 648.694 568.706 650.417 568.706 652.454C568.706 654.49 570.432 656.214 572.472 656.214C574.511 656.214 576.237 654.49 576.237 652.454C576.237 650.417 574.511 648.694 572.472 648.694Z" fill="#9D9D9D"/>
<path d="M555.055 648.694C553.015 648.694 551.289 650.417 551.289 652.454C551.289 654.49 553.015 656.214 555.055 656.214C557.094 656.214 558.82 654.49 558.82 652.454C558.977 650.417 557.251 648.694 555.055 648.694Z" fill="#9D9D9D"/>
<path d="M519.439 589.944C517.4 589.944 515.674 591.667 515.674 593.704C515.674 595.74 517.4 597.464 519.439 597.464C521.479 597.464 523.205 595.74 523.205 593.704C523.205 591.667 521.479 589.944 519.439 589.944Z" fill="#FC8B0B"/>
<path d="M519.439 589.944C517.4 589.944 515.674 591.667 515.674 593.704C515.674 595.74 517.4 597.464 519.439 597.464C521.479 597.464 523.205 595.74 523.205 593.704C523.205 591.667 521.479 589.944 519.439 589.944Z" fill="black" fill-opacity="0.2"/>
<path d="M502.024 589.944C499.985 589.944 498.259 591.667 498.259 593.704C498.259 595.74 499.985 597.464 502.024 597.464C504.064 597.464 505.79 595.74 505.79 593.704C505.79 591.667 504.221 589.944 502.024 589.944Z" fill="#FC8B0B"/>
<path d="M502.024 589.944C499.985 589.944 498.259 591.667 498.259 593.704C498.259 595.74 499.985 597.464 502.024 597.464C504.064 597.464 505.79 595.74 505.79 593.704C505.79 591.667 504.221 589.944 502.024 589.944Z" fill="black" fill-opacity="0.2"/>
<path d="M484.766 589.944C482.726 589.944 481 591.667 481 593.704C481 595.74 482.726 597.464 484.766 597.464C486.805 597.464 488.531 595.74 488.531 593.704C488.531 591.667 486.805 589.944 484.766 589.944Z" fill="#FC8B0B"/>
<path d="M484.766 589.944C482.726 589.944 481 591.667 481 593.704C481 595.74 482.726 597.464 484.766 597.464C486.805 597.464 488.531 595.74 488.531 593.704C488.531 591.667 486.805 589.944 484.766 589.944Z" fill="black" fill-opacity="0.2"/>
<path d="M519.439 607.96C517.4 607.96 515.674 609.684 515.674 611.72C515.674 613.757 517.4 615.48 519.439 615.48C521.479 615.48 523.205 613.757 523.205 611.72C523.205 609.684 521.479 607.96 519.439 607.96Z" fill="#FC8B0B"/>
<path d="M519.439 607.96C517.4 607.96 515.674 609.684 515.674 611.72C515.674 613.757 517.4 615.48 519.439 615.48C521.479 615.48 523.205 613.757 523.205 611.72C523.205 609.684 521.479 607.96 519.439 607.96Z" fill="black" fill-opacity="0.2"/>
<path d="M502.024 607.96C499.985 607.96 498.259 609.684 498.259 611.72C498.259 613.757 499.985 615.48 502.024 615.48C504.064 615.48 505.79 613.757 505.79 611.72C505.79 609.684 504.221 607.96 502.024 607.96Z" fill="#FC8B0B"/>
<path d="M502.024 607.96C499.985 607.96 498.259 609.684 498.259 611.72C498.259 613.757 499.985 615.48 502.024 615.48C504.064 615.48 505.79 613.757 505.79 611.72C505.79 609.684 504.221 607.96 502.024 607.96Z" fill="black" fill-opacity="0.2"/>
<path d="M484.766 607.96C482.726 607.96 481 609.684 481 611.72C481 613.757 482.726 615.48 484.766 615.48C486.805 615.48 488.531 613.757 488.531 611.72C488.531 609.684 486.805 607.96 484.766 607.96Z" fill="#FC8B0B"/>
<path d="M484.766 607.96C482.726 607.96 481 609.684 481 611.72C481 613.757 482.726 615.48 484.766 615.48C486.805 615.48 488.531 613.757 488.531 611.72C488.531 609.684 486.805 607.96 484.766 607.96Z" fill="black" fill-opacity="0.2"/>
<path d="M519.439 625.82C517.4 625.82 515.674 627.544 515.674 629.58C515.674 631.617 517.4 633.34 519.439 633.34C521.479 633.34 523.205 631.617 523.205 629.58C523.205 627.544 521.479 625.82 519.439 625.82Z" fill="#FC8B0B"/>
<path d="M519.439 625.82C517.4 625.82 515.674 627.544 515.674 629.58C515.674 631.617 517.4 633.34 519.439 633.34C521.479 633.34 523.205 631.617 523.205 629.58C523.205 627.544 521.479 625.82 519.439 625.82Z" fill="black" fill-opacity="0.2"/>
<path d="M502.024 625.82C499.985 625.82 498.259 627.544 498.259 629.58C498.259 631.617 499.985 633.34 502.024 633.34C504.064 633.34 505.79 631.617 505.79 629.58C505.79 627.544 504.221 625.82 502.024 625.82Z" fill="#FC8B0B"/>
<path d="M502.024 625.82C499.985 625.82 498.259 627.544 498.259 629.58C498.259 631.617 499.985 633.34 502.024 633.34C504.064 633.34 505.79 631.617 505.79 629.58C505.79 627.544 504.221 625.82 502.024 625.82Z" fill="black" fill-opacity="0.2"/>
<path d="M484.766 625.82C482.726 625.82 481 627.544 481 629.58C481 631.617 482.726 633.34 484.766 633.34C486.805 633.34 488.531 631.617 488.531 629.58C488.531 627.544 486.805 625.82 484.766 625.82Z" fill="#FC8B0B"/>
<path d="M484.766 625.82C482.726 625.82 481 627.544 481 629.58C481 631.617 482.726 633.34 484.766 633.34C486.805 633.34 488.531 631.617 488.531 629.58C488.531 627.544 486.805 625.82 484.766 625.82Z" fill="black" fill-opacity="0.2"/>
<path d="M519.439 643.837C517.4 643.837 515.674 645.56 515.674 647.597C515.674 649.633 517.4 651.357 519.439 651.357C521.479 651.357 523.205 649.633 523.205 647.597C523.205 645.56 521.479 643.837 519.439 643.837Z" fill="#FC8B0B"/>
<path d="M519.439 643.837C517.4 643.837 515.674 645.56 515.674 647.597C515.674 649.633 517.4 651.357 519.439 651.357C521.479 651.357 523.205 649.633 523.205 647.597C523.205 645.56 521.479 643.837 519.439 643.837Z" fill="black" fill-opacity="0.2"/>
<path d="M502.024 643.837C499.985 643.837 498.259 645.56 498.259 647.597C498.259 649.633 499.985 651.357 502.024 651.357C504.064 651.357 505.79 649.633 505.79 647.597C505.79 645.56 504.221 643.837 502.024 643.837Z" fill="#FC8B0B"/>
<path d="M502.024 643.837C499.985 643.837 498.259 645.56 498.259 647.597C498.259 649.633 499.985 651.357 502.024 651.357C504.064 651.357 505.79 649.633 505.79 647.597C505.79 645.56 504.221 643.837 502.024 643.837Z" fill="black" fill-opacity="0.2"/>
<path d="M484.766 643.837C482.726 643.837 481 645.56 481 647.597C481 649.633 482.726 651.357 484.766 651.357C486.805 651.357 488.531 649.633 488.531 647.597C488.531 645.56 486.805 643.837 484.766 643.837Z" fill="#FC8B0B"/>
<path d="M484.766 643.837C482.726 643.837 481 645.56 481 647.597C481 649.633 482.726 651.357 484.766 651.357C486.805 651.357 488.531 649.633 488.531 647.597C488.531 645.56 486.805 643.837 484.766 643.837Z" fill="black" fill-opacity="0.2"/>
<path d="M519.439 661.697C517.4 661.697 515.674 663.42 515.674 665.457C515.674 667.493 517.4 669.217 519.439 669.217C521.479 669.217 523.205 667.493 523.205 665.457C523.205 663.42 521.479 661.697 519.439 661.697Z" fill="#FC8B0B"/>
<path d="M519.439 661.697C517.4 661.697 515.674 663.42 515.674 665.457C515.674 667.493 517.4 669.217 519.439 669.217C521.479 669.217 523.205 667.493 523.205 665.457C523.205 663.42 521.479 661.697 519.439 661.697Z" fill="black" fill-opacity="0.2"/>
<path d="M502.024 661.697C499.985 661.697 498.259 663.42 498.259 665.457C498.259 667.493 499.985 669.217 502.024 669.217C504.064 669.217 505.79 667.493 505.79 665.457C505.79 663.42 504.221 661.697 502.024 661.697Z" fill="#FC8B0B"/>
<path d="M502.024 661.697C499.985 661.697 498.259 663.42 498.259 665.457C498.259 667.493 499.985 669.217 502.024 669.217C504.064 669.217 505.79 667.493 505.79 665.457C505.79 663.42 504.221 661.697 502.024 661.697Z" fill="black" fill-opacity="0.2"/>
<path d="M484.766 661.697C482.726 661.697 481 663.42 481 665.457C481 667.493 482.726 669.217 484.766 669.217C486.805 669.217 488.531 667.493 488.531 665.457C488.531 663.42 486.805 661.697 484.766 661.697Z" fill="#FC8B0B"/>
<path d="M484.766 661.697C482.726 661.697 481 663.42 481 665.457C481 667.493 482.726 669.217 484.766 669.217C486.805 669.217 488.531 667.493 488.531 665.457C488.531 663.42 486.805 661.697 484.766 661.697Z" fill="black" fill-opacity="0.2"/>
<path d="M640.878 597.62C642.917 597.62 644.643 595.896 644.643 593.86C644.643 591.823 642.917 590.1 640.878 590.1C638.838 590.1 637.112 591.823 637.112 593.86C637.112 595.896 638.681 597.62 640.878 597.62Z" fill="#FC8B0B"/>
<path d="M640.878 597.62C642.917 597.62 644.643 595.896 644.643 593.86C644.643 591.823 642.917 590.1 640.878 590.1C638.838 590.1 637.112 591.823 637.112 593.86C637.112 595.896 638.681 597.62 640.878 597.62Z" fill="black" fill-opacity="0.2"/>
<path d="M627.228 593.704C627.228 591.627 625.542 589.944 623.463 589.944C621.383 589.944 619.697 591.627 619.697 593.704C619.697 595.78 621.383 597.464 623.463 597.464C625.542 597.464 627.228 595.78 627.228 593.704Z" fill="#FC8B0B"/>
<path d="M627.228 593.704C627.228 591.627 625.542 589.944 623.463 589.944C621.383 589.944 619.697 591.627 619.697 593.704C619.697 595.78 621.383 597.464 623.463 597.464C625.542 597.464 627.228 595.78 627.228 593.704Z" fill="black" fill-opacity="0.2"/>
<path d="M606.204 589.944C604.164 589.944 602.438 591.667 602.438 593.704C602.438 595.74 604.164 597.464 606.204 597.464C608.244 597.464 609.97 595.74 609.97 593.704C609.97 591.667 608.244 589.944 606.204 589.944Z" fill="#FC8B0B"/>
<path d="M606.204 589.944C604.164 589.944 602.438 591.667 602.438 593.704C602.438 595.74 604.164 597.464 606.204 597.464C608.244 597.464 609.97 595.74 609.97 593.704C609.97 591.667 608.244 589.944 606.204 589.944Z" fill="black" fill-opacity="0.2"/>
<path d="M592.554 593.704C592.554 591.627 590.868 589.944 588.788 589.944C586.708 589.944 585.022 591.627 585.022 593.704C585.022 595.78 586.708 597.464 588.788 597.464C590.868 597.464 592.554 595.78 592.554 593.704Z" fill="#FC8B0B"/>
<path d="M592.554 593.704C592.554 591.627 590.868 589.944 588.788 589.944C586.708 589.944 585.022 591.627 585.022 593.704C585.022 595.78 586.708 597.464 588.788 597.464C590.868 597.464 592.554 595.78 592.554 593.704Z" fill="black" fill-opacity="0.2"/>
<path d="M575.138 593.704C575.138 591.627 573.453 589.944 571.373 589.944C569.293 589.944 567.607 591.627 567.607 593.704C567.607 595.78 569.293 597.464 571.373 597.464C573.453 597.464 575.138 595.78 575.138 593.704Z" fill="#FC8B0B"/>
<path d="M575.138 593.704C575.138 591.627 573.453 589.944 571.373 589.944C569.293 589.944 567.607 591.627 567.607 593.704C567.607 595.78 569.293 597.464 571.373 597.464C573.453 597.464 575.138 595.78 575.138 593.704Z" fill="black" fill-opacity="0.2"/>
<path d="M554.114 589.944C552.074 589.944 550.349 591.667 550.349 593.704C550.349 595.74 552.074 597.464 554.114 597.464C556.154 597.464 557.88 595.74 557.88 593.704C557.88 591.667 556.154 589.944 554.114 589.944Z" fill="#FC8B0B"/>
<path d="M554.114 589.944C552.074 589.944 550.349 591.667 550.349 593.704C550.349 595.74 552.074 597.464 554.114 597.464C556.154 597.464 557.88 595.74 557.88 593.704C557.88 591.667 556.154 589.944 554.114 589.944Z" fill="black" fill-opacity="0.2"/>
<path d="M540.464 593.704C540.464 591.627 538.778 589.944 536.698 589.944C534.618 589.944 532.933 591.627 532.933 593.704C532.933 595.78 534.618 597.464 536.698 597.464C538.778 597.464 540.464 595.78 540.464 593.704Z" fill="#FC8B0B"/>
<path d="M540.464 593.704C540.464 591.627 538.778 589.944 536.698 589.944C534.618 589.944 532.933 591.627 532.933 593.704C532.933 595.78 534.618 597.464 536.698 597.464C538.778 597.464 540.464 595.78 540.464 593.704Z" fill="black" fill-opacity="0.2"/>
<path d="M640.878 607.96C638.838 607.96 637.112 609.684 637.112 611.72C637.112 613.757 638.838 615.48 640.878 615.48C642.917 615.48 644.643 613.757 644.643 611.72C644.643 609.684 642.917 607.96 640.878 607.96Z" fill="#FC8B0B"/>
<path d="M640.878 607.96C638.838 607.96 637.112 609.684 637.112 611.72C637.112 613.757 638.838 615.48 640.878 615.48C642.917 615.48 644.643 613.757 644.643 611.72C644.643 609.684 642.917 607.96 640.878 607.96Z" fill="black" fill-opacity="0.2"/>
<path d="M627.228 611.72C627.228 609.644 625.542 607.96 623.463 607.96C621.383 607.96 619.697 609.644 619.697 611.72C619.697 613.797 621.383 615.48 623.463 615.48C625.542 615.48 627.228 613.797 627.228 611.72Z" fill="#FC8B0B"/>
<path d="M627.228 611.72C627.228 609.644 625.542 607.96 623.463 607.96C621.383 607.96 619.697 609.644 619.697 611.72C619.697 613.797 621.383 615.48 623.463 615.48C625.542 615.48 627.228 613.797 627.228 611.72Z" fill="black" fill-opacity="0.2"/>
<path d="M606.204 607.96C604.164 607.96 602.438 609.684 602.438 611.72C602.438 613.757 604.164 615.48 606.204 615.48C608.244 615.48 609.97 613.757 609.97 611.72C609.97 609.684 608.244 607.96 606.204 607.96Z" fill="#FC8B0B"/>
<path d="M606.204 607.96C604.164 607.96 602.438 609.684 602.438 611.72C602.438 613.757 604.164 615.48 606.204 615.48C608.244 615.48 609.97 613.757 609.97 611.72C609.97 609.684 608.244 607.96 606.204 607.96Z" fill="black" fill-opacity="0.2"/>
<path d="M592.554 611.72C592.554 609.644 590.868 607.96 588.788 607.96C586.708 607.96 585.022 609.644 585.022 611.72C585.022 613.797 586.708 615.48 588.788 615.48C590.868 615.48 592.554 613.797 592.554 611.72Z" fill="#FC8B0B"/>
<path d="M592.554 611.72C592.554 609.644 590.868 607.96 588.788 607.96C586.708 607.96 585.022 609.644 585.022 611.72C585.022 613.797 586.708 615.48 588.788 615.48C590.868 615.48 592.554 613.797 592.554 611.72Z" fill="black" fill-opacity="0.2"/>
<path d="M575.138 611.72C575.138 609.644 573.453 607.96 571.373 607.96C569.293 607.96 567.607 609.644 567.607 611.72C567.607 613.797 569.293 615.48 571.373 615.48C573.453 615.48 575.138 613.797 575.138 611.72Z" fill="#FC8B0B"/>
<path d="M575.138 611.72C575.138 609.644 573.453 607.96 571.373 607.96C569.293 607.96 567.607 609.644 567.607 611.72C567.607 613.797 569.293 615.48 571.373 615.48C573.453 615.48 575.138 613.797 575.138 611.72Z" fill="black" fill-opacity="0.2"/>
<path d="M554.114 607.96C552.074 607.96 550.349 609.684 550.349 611.72C550.349 613.757 552.074 615.48 554.114 615.48C556.154 615.48 557.88 613.757 557.88 611.72C557.88 609.684 556.154 607.96 554.114 607.96Z" fill="#FC8B0B"/>
<path d="M554.114 607.96C552.074 607.96 550.349 609.684 550.349 611.72C550.349 613.757 552.074 615.48 554.114 615.48C556.154 615.48 557.88 613.757 557.88 611.72C557.88 609.684 556.154 607.96 554.114 607.96Z" fill="black" fill-opacity="0.2"/>
<path d="M540.464 611.72C540.464 609.644 538.778 607.96 536.698 607.96C534.618 607.96 532.933 609.644 532.933 611.72C532.933 613.797 534.618 615.48 536.698 615.48C538.778 615.48 540.464 613.797 540.464 611.72Z" fill="#FC8B0B"/>
<path d="M540.464 611.72C540.464 609.644 538.778 607.96 536.698 607.96C534.618 607.96 532.933 609.644 532.933 611.72C532.933 613.797 534.618 615.48 536.698 615.48C538.778 615.48 540.464 613.797 540.464 611.72Z" fill="black" fill-opacity="0.2"/>
<path d="M640.878 625.82C638.838 625.82 637.112 627.544 637.112 629.58C637.112 631.617 638.838 633.34 640.878 633.34C642.917 633.34 644.643 631.617 644.643 629.58C644.643 627.544 642.917 625.82 640.878 625.82Z" fill="#FC8B0B"/>
<path d="M640.878 625.82C638.838 625.82 637.112 627.544 637.112 629.58C637.112 631.617 638.838 633.34 640.878 633.34C642.917 633.34 644.643 631.617 644.643 629.58C644.643 627.544 642.917 625.82 640.878 625.82Z" fill="black" fill-opacity="0.2"/>
<path d="M623.463 625.82C621.423 625.82 619.697 627.544 619.697 629.58C619.697 631.617 621.423 633.34 623.463 633.34C625.502 633.34 627.228 631.617 627.228 629.58C627.228 627.544 625.659 625.82 623.463 625.82Z" fill="#FC8B0B"/>
<path d="M623.463 625.82C621.423 625.82 619.697 627.544 619.697 629.58C619.697 631.617 621.423 633.34 623.463 633.34C625.502 633.34 627.228 631.617 627.228 629.58C627.228 627.544 625.659 625.82 623.463 625.82Z" fill="black" fill-opacity="0.2"/>
<path d="M606.204 625.82C604.164 625.82 602.438 627.544 602.438 629.58C602.438 631.617 604.164 633.34 606.204 633.34C608.244 633.34 609.97 631.617 609.97 629.58C609.97 627.544 608.244 625.82 606.204 625.82Z" fill="#FC8B0B"/>
<path d="M606.204 625.82C604.164 625.82 602.438 627.544 602.438 629.58C602.438 631.617 604.164 633.34 606.204 633.34C608.244 633.34 609.97 631.617 609.97 629.58C609.97 627.544 608.244 625.82 606.204 625.82Z" fill="black" fill-opacity="0.2"/>
<path d="M588.788 625.82C586.748 625.82 585.022 627.544 585.022 629.58C585.022 631.617 586.748 633.34 588.788 633.34C590.828 633.34 592.554 631.617 592.554 629.58C592.554 627.544 590.828 625.82 588.788 625.82Z" fill="#FC8B0B"/>
<path d="M588.788 625.82C586.748 625.82 585.022 627.544 585.022 629.58C585.022 631.617 586.748 633.34 588.788 633.34C590.828 633.34 592.554 631.617 592.554 629.58C592.554 627.544 590.828 625.82 588.788 625.82Z" fill="black" fill-opacity="0.2"/>
<path d="M571.373 625.82C569.333 625.82 567.607 627.544 567.607 629.58C567.607 631.617 569.333 633.34 571.373 633.34C573.413 633.34 575.138 631.617 575.138 629.58C575.295 627.544 573.569 625.82 571.373 625.82Z" fill="#FC8B0B"/>
<path d="M571.373 625.82C569.333 625.82 567.607 627.544 567.607 629.58C567.607 631.617 569.333 633.34 571.373 633.34C573.413 633.34 575.138 631.617 575.138 629.58C575.295 627.544 573.569 625.82 571.373 625.82Z" fill="black" fill-opacity="0.2"/>
<path d="M554.114 625.82C552.074 625.82 550.349 627.544 550.349 629.58C550.349 631.617 552.074 633.34 554.114 633.34C556.154 633.34 557.88 631.617 557.88 629.58C557.88 627.544 556.154 625.82 554.114 625.82Z" fill="#FC8B0B"/>
<path d="M554.114 625.82C552.074 625.82 550.349 627.544 550.349 629.58C550.349 631.617 552.074 633.34 554.114 633.34C556.154 633.34 557.88 631.617 557.88 629.58C557.88 627.544 556.154 625.82 554.114 625.82Z" fill="black" fill-opacity="0.2"/>
<path d="M536.698 625.82C534.658 625.82 532.933 627.544 532.933 629.58C532.933 631.617 534.658 633.34 536.698 633.34C538.738 633.34 540.464 631.617 540.464 629.58C540.621 627.544 538.895 625.82 536.698 625.82Z" fill="#FC8B0B"/>
<path d="M536.698 625.82C534.658 625.82 532.933 627.544 532.933 629.58C532.933 631.617 534.658 633.34 536.698 633.34C538.738 633.34 540.464 631.617 540.464 629.58C540.621 627.544 538.895 625.82 536.698 625.82Z" fill="black" fill-opacity="0.2"/>
<path d="M640.878 643.837C638.838 643.837 637.112 645.56 637.112 647.597C637.112 649.633 638.838 651.357 640.878 651.357C642.917 651.357 644.643 649.633 644.643 647.597C644.643 645.56 642.917 643.837 640.878 643.837Z" fill="#FC8B0B"/>
<path d="M640.878 643.837C638.838 643.837 637.112 645.56 637.112 647.597C637.112 649.633 638.838 651.357 640.878 651.357C642.917 651.357 644.643 649.633 644.643 647.597C644.643 645.56 642.917 643.837 640.878 643.837Z" fill="black" fill-opacity="0.2"/>
<path d="M623.463 643.837C621.423 643.837 619.697 645.56 619.697 647.597C619.697 649.633 621.423 651.357 623.463 651.357C625.502 651.357 627.228 649.633 627.228 647.597C627.228 645.56 625.659 643.837 623.463 643.837Z" fill="#FC8B0B"/>
<path d="M623.463 643.837C621.423 643.837 619.697 645.56 619.697 647.597C619.697 649.633 621.423 651.357 623.463 651.357C625.502 651.357 627.228 649.633 627.228 647.597C627.228 645.56 625.659 643.837 623.463 643.837Z" fill="black" fill-opacity="0.2"/>
<path d="M606.204 643.837C604.164 643.837 602.438 645.56 602.438 647.597C602.438 649.633 604.164 651.357 606.204 651.357C608.244 651.357 609.97 649.633 609.97 647.597C609.97 645.56 608.244 643.837 606.204 643.837Z" fill="#FC8B0B"/>
<path d="M606.204 643.837C604.164 643.837 602.438 645.56 602.438 647.597C602.438 649.633 604.164 651.357 606.204 651.357C608.244 651.357 609.97 649.633 609.97 647.597C609.97 645.56 608.244 643.837 606.204 643.837Z" fill="black" fill-opacity="0.2"/>
<path d="M588.788 643.837C586.748 643.837 585.022 645.56 585.022 647.597C585.022 649.633 586.748 651.357 588.788 651.357C590.828 651.357 592.554 649.633 592.554 647.597C592.554 645.56 590.828 643.837 588.788 643.837Z" fill="#FC8B0B"/>
<path d="M588.788 643.837C586.748 643.837 585.022 645.56 585.022 647.597C585.022 649.633 586.748 651.357 588.788 651.357C590.828 651.357 592.554 649.633 592.554 647.597C592.554 645.56 590.828 643.837 588.788 643.837Z" fill="black" fill-opacity="0.2"/>
<path d="M571.373 643.837C569.333 643.837 567.607 645.56 567.607 647.597C567.607 649.633 569.333 651.357 571.373 651.357C573.413 651.357 575.138 649.633 575.138 647.597C575.295 645.56 573.569 643.837 571.373 643.837Z" fill="#FC8B0B"/>
<path d="M571.373 643.837C569.333 643.837 567.607 645.56 567.607 647.597C567.607 649.633 569.333 651.357 571.373 651.357C573.413 651.357 575.138 649.633 575.138 647.597C575.295 645.56 573.569 643.837 571.373 643.837Z" fill="black" fill-opacity="0.2"/>
<path d="M554.114 643.837C552.074 643.837 550.349 645.56 550.349 647.597C550.349 649.633 552.074 651.357 554.114 651.357C556.154 651.357 557.88 649.633 557.88 647.597C557.88 645.56 556.154 643.837 554.114 643.837Z" fill="#FC8B0B"/>
<path d="M554.114 643.837C552.074 643.837 550.349 645.56 550.349 647.597C550.349 649.633 552.074 651.357 554.114 651.357C556.154 651.357 557.88 649.633 557.88 647.597C557.88 645.56 556.154 643.837 554.114 643.837Z" fill="black" fill-opacity="0.2"/>
<path d="M536.698 643.837C534.658 643.837 532.933 645.56 532.933 647.597C532.933 649.633 534.658 651.357 536.698 651.357C538.738 651.357 540.464 649.633 540.464 647.597C540.621 645.56 538.895 643.837 536.698 643.837Z" fill="#FC8B0B"/>
<path d="M536.698 643.837C534.658 643.837 532.933 645.56 532.933 647.597C532.933 649.633 534.658 651.357 536.698 651.357C538.738 651.357 540.464 649.633 540.464 647.597C540.621 645.56 538.895 643.837 536.698 643.837Z" fill="black" fill-opacity="0.2"/>
<path d="M640.878 661.697C638.838 661.697 637.112 663.42 637.112 665.457C637.112 667.493 638.838 669.217 640.878 669.217C642.917 669.217 644.643 667.493 644.643 665.457C644.643 663.42 642.917 661.697 640.878 661.697Z" fill="#FC8B0B"/>
<path d="M640.878 661.697C638.838 661.697 637.112 663.42 637.112 665.457C637.112 667.493 638.838 669.217 640.878 669.217C642.917 669.217 644.643 667.493 644.643 665.457C644.643 663.42 642.917 661.697 640.878 661.697Z" fill="black" fill-opacity="0.2"/>
<path d="M623.463 661.697C621.423 661.697 619.697 663.42 619.697 665.457C619.697 667.493 621.423 669.217 623.463 669.217C625.502 669.217 627.228 667.493 627.228 665.457C627.228 663.42 625.659 661.697 623.463 661.697Z" fill="#FC8B0B"/>
<path d="M623.463 661.697C621.423 661.697 619.697 663.42 619.697 665.457C619.697 667.493 621.423 669.217 623.463 669.217C625.502 669.217 627.228 667.493 627.228 665.457C627.228 663.42 625.659 661.697 623.463 661.697Z" fill="black" fill-opacity="0.2"/>
<path d="M606.204 661.697C604.164 661.697 602.438 663.42 602.438 665.457C602.438 667.493 604.164 669.217 606.204 669.217C608.244 669.217 609.97 667.493 609.97 665.457C609.97 663.42 608.244 661.697 606.204 661.697Z" fill="#FC8B0B"/>
<path d="M606.204 661.697C604.164 661.697 602.438 663.42 602.438 665.457C602.438 667.493 604.164 669.217 606.204 669.217C608.244 669.217 609.97 667.493 609.97 665.457C609.97 663.42 608.244 661.697 606.204 661.697Z" fill="black" fill-opacity="0.2"/>
<path d="M588.788 661.697C586.748 661.697 585.022 663.42 585.022 665.457C585.022 667.493 586.748 669.217 588.788 669.217C590.828 669.217 592.554 667.493 592.554 665.457C592.554 663.42 590.828 661.697 588.788 661.697Z" fill="#FC8B0B"/>
<path d="M588.788 661.697C586.748 661.697 585.022 663.42 585.022 665.457C585.022 667.493 586.748 669.217 588.788 669.217C590.828 669.217 592.554 667.493 592.554 665.457C592.554 663.42 590.828 661.697 588.788 661.697Z" fill="black" fill-opacity="0.2"/>
<path d="M571.373 661.697C569.333 661.697 567.607 663.42 567.607 665.457C567.607 667.493 569.333 669.217 571.373 669.217C573.413 669.217 575.138 667.493 575.138 665.457C575.138 663.42 573.569 661.697 571.373 661.697Z" fill="#FC8B0B"/>
<path d="M571.373 661.697C569.333 661.697 567.607 663.42 567.607 665.457C567.607 667.493 569.333 669.217 571.373 669.217C573.413 669.217 575.138 667.493 575.138 665.457C575.138 663.42 573.569 661.697 571.373 661.697Z" fill="black" fill-opacity="0.2"/>
<path d="M554.114 661.697C552.074 661.697 550.349 663.42 550.349 665.457C550.349 667.493 552.074 669.217 554.114 669.217C556.154 669.217 557.88 667.493 557.88 665.457C557.88 663.42 556.154 661.697 554.114 661.697Z" fill="#FC8B0B"/>
<path d="M554.114 661.697C552.074 661.697 550.349 663.42 550.349 665.457C550.349 667.493 552.074 669.217 554.114 669.217C556.154 669.217 557.88 667.493 557.88 665.457C557.88 663.42 556.154 661.697 554.114 661.697Z" fill="black" fill-opacity="0.2"/>
<path d="M536.698 661.697C534.658 661.697 532.933 663.42 532.933 665.457C532.933 667.493 534.658 669.217 536.698 669.217C538.738 669.217 540.464 667.493 540.464 665.457C540.464 663.42 538.895 661.697 536.698 661.697Z" fill="#FC8B0B"/>
<path d="M536.698 661.697C534.658 661.697 532.933 663.42 532.933 665.457C532.933 667.493 534.658 669.217 536.698 669.217C538.738 669.217 540.464 667.493 540.464 665.457C540.464 663.42 538.895 661.697 536.698 661.697Z" fill="black" fill-opacity="0.2"/>
</g>
<defs>
<clipPath id="clip0_235_2">
<rect width="182" height="94" fill="white" transform="translate(40 39)"/>
</clipPath>
<clipPath id="clip1_235_2">
<rect width="182" height="94" fill="white" transform="translate(481 576)"/>
</clipPath>
</defs>
</svg>
