<svg width="64" height="73" viewBox="0 0 64 73" fill="none" xmlns="http://www.w3.org/2000/svg">
<path d="M2.65214 28.2137C18.1521 66.7136 38.8188 70.8803 47.1521 70.2137C57.1521 63.7136 63.8521 34.1137 60.6521 17.7137C57.4521 1.31367 36.6521 1.88034 26.6521 4.21367C8.25214 7.81367 -0.568702 20.2136 2.65214 28.2137Z" fill="#FC8B0B" stroke="#FC8B0B"/>
<path d="M44.2856 18.0394C44.1968 18.1335 44.1033 18.2276 44.0051 18.3219M44.2856 18.0394L44.0042 18.3389C43.9252 18.4067 43.8391 18.4701 43.7456 18.5293C43.8389 18.4599 43.9253 18.3907 44.0051 18.3219M44.2856 18.0394C44.2096 18.1411 44.1218 18.2357 44.0222 18.3233M44.0051 18.3219C44.0081 18.3193 44.0112 18.3167 44.0142 18.314L44.0222 18.3233M44.0051 18.3219C44.0021 18.3248 43.9991 18.3276 43.9962 18.3305L44.0222 18.3233M28.2275 45.2882L28.2295 45.2884C30.128 45.462 32.1087 45.2827 34.1683 44.7575C35.8921 44.3179 37.5384 43.6624 39.1064 42.7917C40.7006 41.9359 42.0761 40.9317 43.228 39.7766L43.2296 39.775C44.2079 38.7848 45.0687 37.7226 45.8111 36.5886L45.8111 36.5886L45.8143 36.5837C46.555 35.4226 47.0972 34.2487 47.4348 33.0622C47.7927 31.8324 47.8456 30.6664 47.5679 29.5772C47.3273 28.6336 46.8186 27.794 46.063 27.0601C45.292 26.3112 44.2121 25.7348 42.8599 25.3083C42.002 25.0309 41.0723 24.808 40.0718 24.6386C39.0859 24.4522 38.1127 24.2735 37.1523 24.1023C36.2011 23.9134 35.3453 23.7023 34.5836 23.4696C33.7024 23.1936 33.0596 22.8578 32.6241 22.4809C32.1911 22.0666 31.9391 21.6469 31.8312 21.224C31.6501 20.5134 31.771 19.7403 32.2651 18.877C32.7874 17.9952 33.528 17.2324 34.4997 16.5913L34.4997 16.5913L34.5034 16.5888C35.3254 16.0357 36.0931 15.5961 36.8069 15.2666C37.5492 14.9282 38.2308 14.6817 38.8526 14.5231C39.9543 14.2422 40.8628 14.2004 41.5963 14.3608L41.5963 14.3609L41.6073 14.363C42.3698 14.5118 42.9341 14.7836 43.3349 15.1522L43.3432 15.1598L43.3518 15.167C43.7874 15.5329 44.0384 15.9249 44.1445 16.3412C44.247 16.7429 44.2096 17.1171 44.0324 17.4851L44.029 17.4922L44.0258 17.4994C43.8838 17.8198 43.6019 18.0939 43.1038 18.2969C42.8052 18.3998 42.5286 18.5502 42.3329 18.7796C42.2062 18.9223 42.0187 19.1912 42.104 19.5255C42.1657 19.7675 42.3405 19.9511 42.5841 20.021C42.7816 20.0778 42.982 20.0478 43.1365 20.0084C43.2708 19.9741 43.4003 19.9269 43.5199 19.8622L43.5199 19.8623L43.5292 19.8571C43.9705 19.6063 44.3525 19.3444 44.6695 19.0694L44.6787 19.0614L44.6875 19.053C44.9839 18.7694 45.2481 18.4803 45.4788 18.1855L45.4848 18.1778L45.4905 18.1699C46.1422 17.2664 46.3796 16.3016 46.1266 15.3096C45.9474 14.6068 45.5602 14.003 44.9868 13.5021C44.4008 12.974 43.6714 12.6338 42.82 12.4674C42.1322 12.3077 41.3832 12.2773 40.5788 12.3664C39.8006 12.4288 39 12.5656 38.1775 12.7753C37.1852 13.0283 36.1954 13.3709 35.2083 13.8023L35.2068 13.803C34.2417 14.2285 33.3617 14.7006 32.5682 15.22C31.6443 15.8236 30.8497 16.5453 30.1874 17.3849C29.5423 18.1963 29.0712 19.0518 28.783 19.9513L28.7829 19.9513L28.7799 19.9612C28.5096 20.8691 28.4762 21.7575 28.695 22.6156C28.8827 23.3515 29.2805 24.018 29.8644 24.615L29.8643 24.6151L29.8728 24.6234C30.4903 25.2253 31.3161 25.7003 32.3249 26.0635C33.0297 26.3191 33.8185 26.5261 34.6888 26.6864L34.6888 26.6866L34.7 26.6883C35.545 26.8244 36.4002 26.9578 37.2656 27.0885L37.2656 27.0885L37.2702 27.0892C38.1436 27.2129 38.967 27.3595 39.7407 27.5286L39.7407 27.5286L39.7464 27.5298C40.5274 27.6911 41.1911 27.8976 41.7428 28.1449L41.7457 28.1462C42.4738 28.4671 43.0225 28.8779 43.4133 29.3684L43.4132 29.3685L43.4217 29.3786C43.8445 29.8815 44.1338 30.4437 44.2935 31.0699C44.5962 32.257 44.4579 33.6003 43.8237 35.1222L43.8237 35.1222L43.8218 35.1267C43.2104 36.6357 42.2008 38.04 40.7757 39.3375C39.8499 40.1645 38.768 40.8972 37.5267 41.5337L37.5252 41.5344C36.3038 42.1659 35.0242 42.6522 33.6857 42.9935C32.4896 43.2984 31.314 43.4598 30.1581 43.4793C29.013 43.4986 27.9578 43.3402 26.9882 43.0092L26.9883 43.0092L26.9804 43.0066C26.029 42.6994 25.2083 42.2103 24.5116 41.5386C23.8475 40.8586 23.3623 39.9589 23.0709 38.8163C22.8201 37.8327 22.7089 36.8233 22.7377 35.7867C22.7664 34.7548 22.9471 33.7472 23.2802 32.7623L23.2802 32.7624L23.2827 32.7545C23.592 31.7879 24.0712 30.8781 24.7244 30.0241C24.8551 29.8641 24.9657 29.7118 25.0422 29.5725C25.081 29.5018 25.1189 29.4203 25.1435 29.3324C25.1668 29.2487 25.189 29.1208 25.1526 28.9783C25.1271 28.8783 25.073 28.7759 24.9814 28.6931C24.8924 28.6128 24.7933 28.5736 24.711 28.5556C24.5619 28.523 24.4227 28.5497 24.3362 28.5718C24.2368 28.5971 24.1077 28.6461 23.9688 28.7036L23.9687 28.7034L23.9581 28.7081C23.8266 28.7661 23.6826 28.8454 23.567 28.9604C22.8549 29.5434 22.2386 30.2822 21.7147 31.1678C21.2031 32.0326 20.8036 32.9702 20.5151 33.9787L20.5151 33.9787L20.5141 33.9825C20.2431 34.9583 20.0799 35.9216 20.0261 36.8719C19.972 37.8295 20.0587 38.6936 20.3008 39.4542L20.301 39.4548C20.8696 41.2319 21.8637 42.6251 23.2894 43.6059L23.2894 43.6059L23.293 43.6084C24.6919 44.5527 26.3418 45.1083 28.2275 45.2882ZM24.5966 29.538C24.5965 29.5381 24.5945 29.5385 24.5907 29.539C24.5948 29.5381 24.5967 29.5379 24.5966 29.538Z" fill="white" stroke="white"/>
</svg>
