<svg width="269" height="48" viewBox="0 0 269 48" fill="none" xmlns="http://www.w3.org/2000/svg">
<g clip-path="url(#clip0_204_59)">
<rect x="3" y="4" width="161" height="46" fill="#FC8B0B"/>
<path d="M24.024 42.576C21.336 42.576 18.76 42.224 16.296 41.52C13.832 40.784 11.848 39.84 10.344 38.688L12.984 32.832C14.424 33.856 16.12 34.704 18.072 35.376C20.056 36.016 22.056 36.336 24.072 36.336C25.608 36.336 26.84 36.192 27.768 35.904C28.728 35.584 29.432 35.152 29.88 34.608C30.328 34.064 30.552 33.44 30.552 32.736C30.552 31.84 30.2 31.136 29.496 30.624C28.792 30.08 27.864 29.648 26.712 29.328C25.56 28.976 24.28 28.656 22.872 28.368C21.496 28.048 20.104 27.664 18.696 27.216C17.32 26.768 16.056 26.192 14.904 25.488C13.752 24.784 12.808 23.856 12.072 22.704C11.368 21.552 11.016 20.08 11.016 18.288C11.016 16.368 11.528 14.624 12.552 13.056C13.608 11.456 15.176 10.192 17.256 9.264C19.368 8.304 22.008 7.824 25.176 7.824C27.288 7.824 29.368 8.08 31.416 8.592C33.464 9.072 35.272 9.808 36.84 10.8L34.44 16.704C32.872 15.808 31.304 15.152 29.736 14.736C28.168 14.288 26.632 14.064 25.128 14.064C23.624 14.064 22.392 14.24 21.432 14.592C20.472 14.944 19.784 15.408 19.368 15.984C18.952 16.528 18.744 17.168 18.744 17.904C18.744 18.768 19.096 19.472 19.8 20.016C20.504 20.528 21.432 20.944 22.584 21.264C23.736 21.584 25 21.904 26.376 22.224C27.784 22.544 29.176 22.912 30.552 23.328C31.96 23.744 33.24 24.304 34.392 25.008C35.544 25.712 36.472 26.64 37.176 27.792C37.912 28.944 38.28 30.4 38.28 32.16C38.28 34.048 37.752 35.776 36.696 37.344C35.64 38.912 34.056 40.176 31.944 41.136C29.864 42.096 27.224 42.576 24.024 42.576ZM53.6254 42.384C50.5854 42.384 48.2174 41.616 46.5214 40.08C44.8254 38.512 43.9774 36.192 43.9774 33.12V10.464H51.4654V33.024C51.4654 34.112 51.7534 34.96 52.3294 35.568C52.9054 36.144 53.6894 36.432 54.6814 36.432C55.8654 36.432 56.8734 36.112 57.7054 35.472L59.7214 40.752C58.9534 41.296 58.0254 41.712 56.9374 42C55.8814 42.256 54.7774 42.384 53.6254 42.384ZM39.9934 22.512V16.752H57.8974V22.512H39.9934ZM63.9248 42V16.176H71.0768V23.472L70.0688 21.36C70.8368 19.536 72.0688 18.16 73.7648 17.232C75.4608 16.272 77.5248 15.792 79.9568 15.792V22.704C79.6368 22.672 79.3488 22.656 79.0928 22.656C78.8368 22.624 78.5648 22.608 78.2768 22.608C76.2288 22.608 74.5648 23.2 73.2848 24.384C72.0368 25.536 71.4128 27.344 71.4128 29.808V42H63.9248ZM95.4926 42.384C93.3486 42.384 91.4286 41.968 89.7326 41.136C88.0686 40.304 86.7726 39.04 85.8446 37.344C84.9166 35.616 84.4526 33.424 84.4526 30.768V16.176H91.9406V29.664C91.9406 31.808 92.3886 33.392 93.2846 34.416C94.2126 35.408 95.5086 35.904 97.1726 35.904C98.3246 35.904 99.3486 35.664 100.245 35.184C101.141 34.672 101.845 33.904 102.357 32.88C102.869 31.824 103.125 30.512 103.125 28.944V16.176H110.613V42H103.509V34.896L104.805 36.96C103.941 38.752 102.661 40.112 100.965 41.04C99.3006 41.936 97.4766 42.384 95.4926 42.384ZM150.622 15.792C152.67 15.792 154.478 16.208 156.046 17.04C157.646 17.84 158.894 19.088 159.79 20.784C160.718 22.448 161.182 24.592 161.182 27.216V42H153.694V28.368C153.694 26.288 153.262 24.752 152.398 23.76C151.534 22.768 150.318 22.272 148.75 22.272C147.662 22.272 146.686 22.528 145.822 23.04C144.958 23.52 144.286 24.256 143.806 25.248C143.326 26.24 143.086 27.504 143.086 29.04V42H135.598V28.368C135.598 26.288 135.166 24.752 134.302 23.76C133.47 22.768 132.27 22.272 130.702 22.272C129.614 22.272 128.638 22.528 127.774 23.04C126.91 23.52 126.238 24.256 125.758 25.248C125.278 26.24 125.038 27.504 125.038 29.04V42H117.55V16.176H124.702V23.232L123.358 21.168C124.254 19.408 125.518 18.08 127.15 17.184C128.814 16.256 130.702 15.792 132.814 15.792C135.182 15.792 137.246 16.4 139.006 17.616C140.798 18.8 141.982 20.624 142.558 23.088L139.918 22.368C140.782 20.352 142.158 18.752 144.046 17.568C145.966 16.384 148.158 15.792 150.622 15.792Z" fill="white"/>
<path d="M174.902 42L164.053 16.176H171.782L180.806 38.4H176.966L186.326 16.176H193.526L182.63 42H174.902ZM196.581 42V16.176H204.069V42H196.581ZM200.325 12.576C198.949 12.576 197.829 12.176 196.965 11.376C196.101 10.576 195.669 9.584 195.669 8.4C195.669 7.216 196.101 6.224 196.965 5.424C197.829 4.624 198.949 4.224 200.325 4.224C201.701 4.224 202.821 4.608 203.685 5.376C204.549 6.112 204.981 7.072 204.981 8.256C204.981 9.504 204.549 10.544 203.685 11.376C202.853 12.176 201.733 12.576 200.325 12.576ZM211.019 42V6.384H218.507V42H211.019ZM225.456 42V6.384H232.944V42H225.456ZM252.71 42.384C249.766 42.384 247.174 41.808 244.934 40.656C242.726 39.504 241.014 37.936 239.798 35.952C238.582 33.936 237.974 31.648 237.974 29.088C237.974 26.496 238.566 24.208 239.75 22.224C240.966 20.208 242.614 18.64 244.694 17.52C246.774 16.368 249.126 15.792 251.75 15.792C254.278 15.792 256.55 16.336 258.566 17.424C260.614 18.48 262.23 20.016 263.414 22.032C264.598 24.016 265.19 26.4 265.19 29.184C265.19 29.472 265.174 29.808 265.142 30.192C265.11 30.544 265.078 30.88 265.046 31.2H244.07V26.832H261.109L258.23 28.128C258.23 26.784 257.958 25.616 257.414 24.624C256.87 23.632 256.118 22.864 255.158 22.32C254.198 21.744 253.078 21.456 251.798 21.456C250.518 21.456 249.382 21.744 248.39 22.32C247.43 22.864 246.678 23.648 246.134 24.672C245.59 25.664 245.318 26.848 245.318 28.224V29.376C245.318 30.784 245.622 32.032 246.23 33.12C246.87 34.176 247.75 34.992 248.87 35.568C250.022 36.112 251.366 36.384 252.902 36.384C254.278 36.384 255.478 36.176 256.502 35.76C257.558 35.344 258.518 34.72 259.382 33.888L263.366 38.208C262.182 39.552 260.694 40.592 258.902 41.328C257.11 42.032 255.046 42.384 252.71 42.384Z" fill="#FC8B0B"/>
</g>
<defs>
<clipPath id="clip0_204_59">
<rect width="269" height="48" fill="white"/>
</clipPath>
</defs>
</svg>
