<svg width="269" height="42" viewBox="0 0 269 42" fill="none" xmlns="http://www.w3.org/2000/svg">
<g clip-path="url(#clip0_204_59)">
<rect x="3" y="1" width="161" height="39" fill="#5BB381"/>
<path d="M24.024 37.576C21.336 37.576 18.76 37.224 16.296 36.52C13.832 35.784 11.848 34.84 10.344 33.688L12.984 27.832C14.424 28.856 16.12 29.704 18.072 30.376C20.056 31.016 22.056 31.336 24.072 31.336C25.608 31.336 26.84 31.192 27.768 30.904C28.728 30.584 29.432 30.152 29.88 29.608C30.328 29.064 30.552 28.44 30.552 27.736C30.552 26.84 30.2 26.136 29.496 25.624C28.792 25.08 27.864 24.648 26.712 24.328C25.56 23.976 24.28 23.656 22.872 23.368C21.496 23.048 20.104 22.664 18.696 22.216C17.32 21.768 16.056 21.192 14.904 20.488C13.752 19.784 12.808 18.856 12.072 17.704C11.368 16.552 11.016 15.08 11.016 13.288C11.016 11.368 11.528 9.624 12.552 8.056C13.608 6.456 15.176 5.192 17.256 4.264C19.368 3.304 22.008 2.824 25.176 2.824C27.288 2.824 29.368 3.08 31.416 3.592C33.464 4.072 35.272 4.808 36.84 5.8L34.44 11.704C32.872 10.808 31.304 10.152 29.736 9.736C28.168 9.288 26.632 9.064 25.128 9.064C23.624 9.064 22.392 9.24 21.432 9.592C20.472 9.944 19.784 10.408 19.368 10.984C18.952 11.528 18.744 12.168 18.744 12.904C18.744 13.768 19.096 14.472 19.8 15.016C20.504 15.528 21.432 15.944 22.584 16.264C23.736 16.584 25 16.904 26.376 17.224C27.784 17.544 29.176 17.912 30.552 18.328C31.96 18.744 33.24 19.304 34.392 20.008C35.544 20.712 36.472 21.64 37.176 22.792C37.912 23.944 38.28 25.4 38.28 27.16C38.28 29.048 37.752 30.776 36.696 32.344C35.64 33.912 34.056 35.176 31.944 36.136C29.864 37.096 27.224 37.576 24.024 37.576ZM53.6254 37.384C50.5854 37.384 48.2174 36.616 46.5214 35.08C44.8254 33.512 43.9774 31.192 43.9774 28.12V5.464H51.4654V28.024C51.4654 29.112 51.7534 29.96 52.3294 30.568C52.9054 31.144 53.6894 31.432 54.6814 31.432C55.8654 31.432 56.8734 31.112 57.7054 30.472L59.7214 35.752C58.9534 36.296 58.0254 36.712 56.9374 37C55.8814 37.256 54.7774 37.384 53.6254 37.384ZM39.9934 17.512V11.752H57.8974V17.512H39.9934ZM63.9248 37V11.176H71.0768V18.472L70.0688 16.36C70.8368 14.536 72.0688 13.16 73.7648 12.232C75.4608 11.272 77.5248 10.792 79.9568 10.792V17.704C79.6368 17.672 79.3488 17.656 79.0928 17.656C78.8368 17.624 78.5648 17.608 78.2768 17.608C76.2288 17.608 74.5648 18.2 73.2848 19.384C72.0368 20.536 71.4128 22.344 71.4128 24.808V37H63.9248ZM95.4926 37.384C93.3486 37.384 91.4286 36.968 89.7326 36.136C88.0686 35.304 86.7726 34.04 85.8446 32.344C84.9166 30.616 84.4526 28.424 84.4526 25.768V11.176H91.9406V24.664C91.9406 26.808 92.3886 28.392 93.2846 29.416C94.2126 30.408 95.5086 30.904 97.1726 30.904C98.3246 30.904 99.3486 30.664 100.245 30.184C101.141 29.672 101.845 28.904 102.357 27.88C102.869 26.824 103.125 25.512 103.125 23.944V11.176H110.613V37H103.509V29.896L104.805 31.96C103.941 33.752 102.661 35.112 100.965 36.04C99.3006 36.936 97.4766 37.384 95.4926 37.384ZM150.622 10.792C152.67 10.792 154.478 11.208 156.046 12.04C157.646 12.84 158.894 14.088 159.79 15.784C160.718 17.448 161.182 19.592 161.182 22.216V37H153.694V23.368C153.694 21.288 153.262 19.752 152.398 18.76C151.534 17.768 150.318 17.272 148.75 17.272C147.662 17.272 146.686 17.528 145.822 18.04C144.958 18.52 144.286 19.256 143.806 20.248C143.326 21.24 143.086 22.504 143.086 24.04V37H135.598V23.368C135.598 21.288 135.166 19.752 134.302 18.76C133.47 17.768 132.27 17.272 130.702 17.272C129.614 17.272 128.638 17.528 127.774 18.04C126.91 18.52 126.238 19.256 125.758 20.248C125.278 21.24 125.038 22.504 125.038 24.04V37H117.55V11.176H124.702V18.232L123.358 16.168C124.254 14.408 125.518 13.08 127.15 12.184C128.814 11.256 130.702 10.792 132.814 10.792C135.182 10.792 137.246 11.4 139.006 12.616C140.798 13.8 141.982 15.624 142.558 18.088L139.918 17.368C140.782 15.352 142.158 13.752 144.046 12.568C145.966 11.384 148.158 10.792 150.622 10.792Z" fill="white"/>
<path d="M174.902 37L164.053 11.176H171.782L180.806 33.4H176.966L186.326 11.176H193.526L182.63 37H174.902ZM196.581 37V11.176H204.069V37H196.581ZM200.325 7.576C198.949 7.576 197.829 7.176 196.965 6.376C196.101 5.576 195.669 4.584 195.669 3.4C195.669 2.216 196.101 1.224 196.965 0.423999C197.829 -0.376002 198.949 -0.776003 200.325 -0.776003C201.701 -0.776003 202.821 -0.392002 203.685 0.375999C204.549 1.112 204.981 2.072 204.981 3.256C204.981 4.504 204.549 5.544 203.685 6.376C202.853 7.176 201.733 7.576 200.325 7.576ZM211.019 37V1.384H218.507V37H211.019ZM225.456 37V1.384H232.944V37H225.456ZM252.71 37.384C249.766 37.384 247.174 36.808 244.934 35.656C242.726 34.504 241.014 32.936 239.798 30.952C238.582 28.936 237.974 26.648 237.974 24.088C237.974 21.496 238.566 19.208 239.75 17.224C240.966 15.208 242.614 13.64 244.694 12.52C246.774 11.368 249.126 10.792 251.75 10.792C254.278 10.792 256.55 11.336 258.566 12.424C260.614 13.48 262.23 15.016 263.414 17.032C264.598 19.016 265.19 21.4 265.19 24.184C265.19 24.472 265.174 24.808 265.142 25.192C265.11 25.544 265.078 25.88 265.046 26.2H244.07V21.832H261.109L258.23 23.128C258.23 21.784 257.958 20.616 257.414 19.624C256.87 18.632 256.118 17.864 255.158 17.32C254.198 16.744 253.078 16.456 251.798 16.456C250.518 16.456 249.382 16.744 248.39 17.32C247.43 17.864 246.678 18.648 246.134 19.672C245.59 20.664 245.318 21.848 245.318 23.224V24.376C245.318 25.784 245.622 27.032 246.23 28.12C246.87 29.176 247.75 29.992 248.87 30.568C250.022 31.112 251.366 31.384 252.902 31.384C254.278 31.384 255.478 31.176 256.502 30.76C257.558 30.344 258.518 29.72 259.382 28.888L263.366 33.208C262.182 34.552 260.694 35.592 258.902 36.328C257.11 37.032 255.046 37.384 252.71 37.384Z" fill="#5BB381"/>
</g>
<defs>
<clipPath id="clip0_204_59">
<rect width="269" height="42" fill="white"/>
</clipPath>
</defs>
</svg>
