<svg width="234" height="49" viewBox="0 0 234 49" fill="none" xmlns="http://www.w3.org/2000/svg">
<path d="M33.396 15.344C34.932 15.344 36.288 15.656 37.464 16.28C38.664 16.88 39.6 17.816 40.272 19.088C40.968 20.336 41.316 21.944 41.316 23.912V35H35.7V24.776C35.7 23.216 35.376 22.064 34.728 21.32C34.08 20.576 33.168 20.204 31.992 20.204C31.176 20.204 30.444 20.396 29.796 20.78C29.148 21.14 28.644 21.692 28.284 22.436C27.924 23.18 27.744 24.128 27.744 25.28V35H22.128V24.776C22.128 23.216 21.804 22.064 21.156 21.32C20.532 20.576 19.632 20.204 18.456 20.204C17.64 20.204 16.908 20.396 16.26 20.78C15.612 21.14 15.108 21.692 14.748 22.436C14.388 23.18 14.208 24.128 14.208 25.28V35H8.592V15.632H13.956V20.924L12.948 19.376C13.62 18.056 14.568 17.06 15.792 16.388C17.04 15.692 18.456 15.344 20.04 15.344C21.816 15.344 23.364 15.8 24.684 16.712C26.028 17.6 26.916 18.968 27.348 20.816L25.368 20.276C26.016 18.764 27.048 17.564 28.464 16.676C29.904 15.788 31.548 15.344 33.396 15.344ZM56.1024 35.288C53.8944 35.288 51.9504 34.856 50.2704 33.992C48.6144 33.128 47.3304 31.952 46.4184 30.464C45.5064 28.952 45.0504 27.236 45.0504 25.316C45.0504 23.372 45.4944 21.656 46.3824 20.168C47.2944 18.656 48.5304 17.48 50.0904 16.64C51.6504 15.776 53.4144 15.344 55.3824 15.344C57.2784 15.344 58.9824 15.752 60.4944 16.568C62.0304 17.36 63.2424 18.512 64.1304 20.024C65.0184 21.512 65.4624 23.3 65.4624 25.388C65.4624 25.604 65.4504 25.856 65.4264 26.144C65.4024 26.408 65.3784 26.66 65.3544 26.9H49.6224V23.624H62.4024L60.2424 24.596C60.2424 23.588 60.0384 22.712 59.6304 21.968C59.2224 21.224 58.6584 20.648 57.9384 20.24C57.2184 19.808 56.3784 19.592 55.4184 19.592C54.4584 19.592 53.6064 19.808 52.8624 20.24C52.1424 20.648 51.5784 21.236 51.1704 22.004C50.7624 22.748 50.5584 23.636 50.5584 24.668V25.532C50.5584 26.588 50.7864 27.524 51.2424 28.34C51.7224 29.132 52.3824 29.744 53.2224 30.176C54.0864 30.584 55.0944 30.788 56.2464 30.788C57.2784 30.788 58.1784 30.632 58.9464 30.32C59.7384 30.008 60.4584 29.54 61.1064 28.916L64.0944 32.156C63.2064 33.164 62.0904 33.944 60.7464 34.496C59.4024 35.024 57.8544 35.288 56.1024 35.288ZM69.2014 35V15.632H74.5654V21.104L73.8094 19.52C74.3854 18.152 75.3094 17.12 76.5814 16.424C77.8534 15.704 79.4014 15.344 81.2254 15.344V20.528C80.9854 20.504 80.7694 20.492 80.5774 20.492C80.3854 20.468 80.1814 20.456 79.9654 20.456C78.4294 20.456 77.1814 20.9 76.2214 21.788C75.2854 22.652 74.8174 24.008 74.8174 25.856V35H69.2014ZM90.4886 35L82.3526 15.632H88.1486L94.9166 32.3H92.0366L99.0566 15.632H104.457L96.2846 35H90.4886ZM115.833 35.288C113.625 35.288 111.681 34.856 110.001 33.992C108.345 33.128 107.061 31.952 106.149 30.464C105.237 28.952 104.781 27.236 104.781 25.316C104.781 23.372 105.225 21.656 106.113 20.168C107.025 18.656 108.261 17.48 109.821 16.64C111.381 15.776 113.145 15.344 115.113 15.344C117.009 15.344 118.713 15.752 120.225 16.568C121.761 17.36 122.973 18.512 123.861 20.024C124.749 21.512 125.193 23.3 125.193 25.388C125.193 25.604 125.181 25.856 125.157 26.144C125.133 26.408 125.109 26.66 125.085 26.9H109.353V23.624H122.133L119.973 24.596C119.973 23.588 119.769 22.712 119.361 21.968C118.953 21.224 118.389 20.648 117.669 20.24C116.949 19.808 116.109 19.592 115.149 19.592C114.189 19.592 113.337 19.808 112.593 20.24C111.873 20.648 111.309 21.236 110.901 22.004C110.493 22.748 110.289 23.636 110.289 24.668V25.532C110.289 26.588 110.517 27.524 110.973 28.34C111.453 29.132 112.113 29.744 112.953 30.176C113.817 30.584 114.825 30.788 115.977 30.788C117.009 30.788 117.909 30.632 118.677 30.32C119.469 30.008 120.189 29.54 120.837 28.916L123.825 32.156C122.937 33.164 121.821 33.944 120.477 34.496C119.133 35.024 117.585 35.288 115.833 35.288ZM128.932 35V15.632H134.548V35H128.932ZM131.74 12.932C130.708 12.932 129.868 12.632 129.22 12.032C128.572 11.432 128.248 10.688 128.248 9.8C128.248 8.912 128.572 8.168 129.22 7.568C129.868 6.968 130.708 6.668 131.74 6.668C132.772 6.668 133.612 6.956 134.26 7.532C134.908 8.084 135.232 8.804 135.232 9.692C135.232 10.628 134.908 11.408 134.26 12.032C133.636 12.632 132.796 12.932 131.74 12.932ZM139.76 35V8.288H145.376V35H139.76ZM150.588 35V8.288H156.204V35H150.588ZM171.028 35.288C168.82 35.288 166.876 34.856 165.196 33.992C163.54 33.128 162.256 31.952 161.344 30.464C160.432 28.952 159.976 27.236 159.976 25.316C159.976 23.372 160.42 21.656 161.308 20.168C162.22 18.656 163.456 17.48 165.016 16.64C166.576 15.776 168.34 15.344 170.308 15.344C172.204 15.344 173.908 15.752 175.42 16.568C176.956 17.36 178.168 18.512 179.056 20.024C179.944 21.512 180.388 23.3 180.388 25.388C180.388 25.604 180.376 25.856 180.352 26.144C180.328 26.408 180.304 26.66 180.28 26.9H164.548V23.624H177.328L175.168 24.596C175.168 23.588 174.964 22.712 174.556 21.968C174.148 21.224 173.584 20.648 172.864 20.24C172.144 19.808 171.304 19.592 170.344 19.592C169.384 19.592 168.532 19.808 167.788 20.24C167.068 20.648 166.504 21.236 166.096 22.004C165.688 22.748 165.484 23.636 165.484 24.668V25.532C165.484 26.588 165.712 27.524 166.168 28.34C166.648 29.132 167.308 29.744 168.148 30.176C169.012 30.584 170.02 30.788 171.172 30.788C172.204 30.788 173.104 30.632 173.872 30.32C174.664 30.008 175.384 29.54 176.032 28.916L179.02 32.156C178.132 33.164 177.016 33.944 175.672 34.496C174.328 35.024 172.78 35.288 171.028 35.288Z" fill="#4A154B"/>
<path d="M192.299 35.288C190.691 35.288 189.251 34.976 187.979 34.352C186.731 33.728 185.759 32.78 185.063 31.508C184.367 30.212 184.019 28.568 184.019 26.576V15.632H189.635V25.748C189.635 27.356 189.971 28.544 190.643 29.312C191.339 30.056 192.311 30.428 193.559 30.428C194.423 30.428 195.191 30.248 195.863 29.888C196.535 29.504 197.063 28.928 197.447 28.16C197.831 27.368 198.023 26.384 198.023 25.208V15.632H203.639V35H198.311V29.672L199.283 31.22C198.635 32.564 197.675 33.584 196.403 34.28C195.155 34.952 193.787 35.288 192.299 35.288ZM206.394 35L215.07 23.624L214.962 26.72L206.646 15.632H212.946L218.202 22.868L215.826 22.94L221.262 15.632H227.238L218.886 26.612V23.588L227.526 35H221.154L215.646 27.296L217.986 27.62L212.514 35H206.394Z" fill="#5BB381"/>
<path d="M181 9L229 9" stroke="#5BB381"/>
<path d="M181 41L229 41" stroke="#5BB381"/>
</svg>
