<svg width="220" height="29" viewBox="0 0 220 29" fill="none" xmlns="http://www.w3.org/2000/svg">
<g clip-path="url(#clip0_105_66)">
<path d="M25.396 9.344C26.932 9.344 28.288 9.656 29.464 10.28C30.664 10.88 31.6 11.816 32.272 13.088C32.968 14.336 33.316 15.944 33.316 17.912V29H27.7V18.776C27.7 17.216 27.376 16.064 26.728 15.32C26.08 14.576 25.168 14.204 23.992 14.204C23.176 14.204 22.444 14.396 21.796 14.78C21.148 15.14 20.644 15.692 20.284 16.436C19.924 17.18 19.744 18.128 19.744 19.28V29H14.128V18.776C14.128 17.216 13.804 16.064 13.156 15.32C12.532 14.576 11.632 14.204 10.456 14.204C9.64 14.204 8.908 14.396 8.26 14.78C7.612 15.14 7.108 15.692 6.748 16.436C6.388 17.18 6.208 18.128 6.208 19.28V29H0.592V9.632H5.956V14.924L4.948 13.376C5.62 12.056 6.568 11.06 7.792 10.388C9.04 9.692 10.456 9.344 12.04 9.344C13.816 9.344 15.364 9.8 16.684 10.712C18.028 11.6 18.916 12.968 19.348 14.816L17.368 14.276C18.016 12.764 19.048 11.564 20.464 10.676C21.904 9.788 23.548 9.344 25.396 9.344ZM48.1024 29.288C45.8944 29.288 43.9504 28.856 42.2704 27.992C40.6144 27.128 39.3304 25.952 38.4184 24.464C37.5064 22.952 37.0504 21.236 37.0504 19.316C37.0504 17.372 37.4944 15.656 38.3824 14.168C39.2944 12.656 40.5304 11.48 42.0904 10.64C43.6504 9.776 45.4144 9.344 47.3824 9.344C49.2784 9.344 50.9824 9.752 52.4944 10.568C54.0304 11.36 55.2424 12.512 56.1304 14.024C57.0184 15.512 57.4624 17.3 57.4624 19.388C57.4624 19.604 57.4504 19.856 57.4264 20.144C57.4024 20.408 57.3784 20.66 57.3544 20.9H41.6224V17.624H54.4024L52.2424 18.596C52.2424 17.588 52.0384 16.712 51.6304 15.968C51.2224 15.224 50.6584 14.648 49.9384 14.24C49.2184 13.808 48.3784 13.592 47.4184 13.592C46.4584 13.592 45.6064 13.808 44.8624 14.24C44.1424 14.648 43.5784 15.236 43.1704 16.004C42.7624 16.748 42.5584 17.636 42.5584 18.668V19.532C42.5584 20.588 42.7864 21.524 43.2424 22.34C43.7224 23.132 44.3824 23.744 45.2224 24.176C46.0864 24.584 47.0944 24.788 48.2464 24.788C49.2784 24.788 50.1784 24.632 50.9464 24.32C51.7384 24.008 52.4584 23.54 53.1064 22.916L56.0944 26.156C55.2064 27.164 54.0904 27.944 52.7464 28.496C51.4024 29.024 49.8544 29.288 48.1024 29.288ZM61.2014 29V9.632H66.5654V15.104L65.8094 13.52C66.3854 12.152 67.3094 11.12 68.5814 10.424C69.8534 9.704 71.4014 9.344 73.2254 9.344V14.528C72.9854 14.504 72.7694 14.492 72.5774 14.492C72.3854 14.468 72.1814 14.456 71.9654 14.456C70.4294 14.456 69.1814 14.9 68.2214 15.788C67.2854 16.652 66.8174 18.008 66.8174 19.856V29H61.2014ZM82.4886 29L74.3526 9.632H80.1486L86.9166 26.3H84.0366L91.0566 9.632H96.4566L88.2846 29H82.4886ZM107.833 29.288C105.625 29.288 103.681 28.856 102.001 27.992C100.345 27.128 99.0609 25.952 98.1489 24.464C97.2369 22.952 96.7809 21.236 96.7809 19.316C96.7809 17.372 97.2249 15.656 98.1129 14.168C99.0249 12.656 100.261 11.48 101.821 10.64C103.381 9.776 105.145 9.344 107.113 9.344C109.009 9.344 110.713 9.752 112.225 10.568C113.761 11.36 114.973 12.512 115.861 14.024C116.749 15.512 117.193 17.3 117.193 19.388C117.193 19.604 117.181 19.856 117.157 20.144C117.133 20.408 117.109 20.66 117.085 20.9H101.353V17.624H114.133L111.973 18.596C111.973 17.588 111.769 16.712 111.361 15.968C110.953 15.224 110.389 14.648 109.669 14.24C108.949 13.808 108.109 13.592 107.149 13.592C106.189 13.592 105.337 13.808 104.593 14.24C103.873 14.648 103.309 15.236 102.901 16.004C102.493 16.748 102.289 17.636 102.289 18.668V19.532C102.289 20.588 102.517 21.524 102.973 22.34C103.453 23.132 104.113 23.744 104.953 24.176C105.817 24.584 106.825 24.788 107.977 24.788C109.009 24.788 109.909 24.632 110.677 24.32C111.469 24.008 112.189 23.54 112.837 22.916L115.825 26.156C114.937 27.164 113.821 27.944 112.477 28.496C111.133 29.024 109.585 29.288 107.833 29.288ZM120.932 29V9.632H126.548V29H120.932ZM123.74 6.932C122.708 6.932 121.868 6.632 121.22 6.032C120.572 5.432 120.248 4.688 120.248 3.8C120.248 2.912 120.572 2.168 121.22 1.568C121.868 0.967998 122.708 0.667998 123.74 0.667998C124.772 0.667998 125.612 0.955998 126.26 1.532C126.908 2.084 127.232 2.804 127.232 3.692C127.232 4.628 126.908 5.408 126.26 6.032C125.636 6.632 124.796 6.932 123.74 6.932ZM131.76 29V2.288H137.376V29H131.76ZM142.588 29V2.288H148.204V29H142.588ZM163.028 29.288C160.82 29.288 158.876 28.856 157.196 27.992C155.54 27.128 154.256 25.952 153.344 24.464C152.432 22.952 151.976 21.236 151.976 19.316C151.976 17.372 152.42 15.656 153.308 14.168C154.22 12.656 155.456 11.48 157.016 10.64C158.576 9.776 160.34 9.344 162.308 9.344C164.204 9.344 165.908 9.752 167.42 10.568C168.956 11.36 170.168 12.512 171.056 14.024C171.944 15.512 172.388 17.3 172.388 19.388C172.388 19.604 172.376 19.856 172.352 20.144C172.328 20.408 172.304 20.66 172.28 20.9H156.548V17.624H169.328L167.168 18.596C167.168 17.588 166.964 16.712 166.556 15.968C166.148 15.224 165.584 14.648 164.864 14.24C164.144 13.808 163.304 13.592 162.344 13.592C161.384 13.592 160.532 13.808 159.788 14.24C159.068 14.648 158.504 15.236 158.096 16.004C157.688 16.748 157.484 17.636 157.484 18.668V19.532C157.484 20.588 157.712 21.524 158.168 22.34C158.648 23.132 159.308 23.744 160.148 24.176C161.012 24.584 162.02 24.788 163.172 24.788C164.204 24.788 165.104 24.632 165.872 24.32C166.664 24.008 167.384 23.54 168.032 22.916L171.02 26.156C170.132 27.164 169.016 27.944 167.672 28.496C166.328 29.024 164.78 29.288 163.028 29.288Z" fill="#4A154B"/>
<path d="M184.299 29.288C182.691 29.288 181.251 28.976 179.979 28.352C178.731 27.728 177.759 26.78 177.063 25.508C176.367 24.212 176.019 22.568 176.019 20.576V9.632H181.635V19.748C181.635 21.356 181.971 22.544 182.643 23.312C183.339 24.056 184.311 24.428 185.559 24.428C186.423 24.428 187.191 24.248 187.863 23.888C188.535 23.504 189.063 22.928 189.447 22.16C189.831 21.368 190.023 20.384 190.023 19.208V9.632H195.639V29H190.311V23.672L191.283 25.22C190.635 26.564 189.675 27.584 188.403 28.28C187.155 28.952 185.787 29.288 184.299 29.288ZM198.394 29L207.07 17.624L206.962 20.72L198.646 9.632H204.946L210.202 16.868L207.826 16.94L213.262 9.632H219.238L210.886 20.612V17.588L219.526 29H213.154L207.646 21.296L209.986 21.62L204.514 29H198.394Z" fill="#5BB381"/>
</g>
<defs>
<clipPath id="clip0_105_66">
<rect width="220" height="29" fill="white"/>
</clipPath>
</defs>
</svg>
